<svg version="1.1" id="Layer_1" xmlns="http://www.w3.org/2000/svg" xmlns:xlink="http://www.w3.org/1999/xlink" x="0px" y="0px"
	 width="100%" viewBox="0 0 1653 624" enable-background="new 0 0 1653 624" xml:space="preserve">
<path fill="#FCAEBB" opacity="1.000000" stroke="none" 
	d="
M1015.000000,625.000000 
	C676.666687,625.000000 338.833344,625.000000 1.000000,625.000000 
	C1.000000,417.000000 1.000000,209.000000 1.000000,1.000000 
	C552.000000,1.000000 1103.000000,1.000000 1654.000000,1.000000 
	C1654.000000,209.000000 1654.000000,417.000000 1654.000000,625.000000 
	C1441.166626,625.000000 1228.333374,625.000000 1015.000000,625.000000 
M791.998596,388.998322 
	C791.998596,388.998322 792.012817,389.008331 792.014526,389.866943 
	C791.305847,393.959961 793.257141,394.986603 797.075989,394.921875 
	C808.235229,394.732697 819.405945,394.642639 830.559265,394.962799 
	C835.325012,395.099609 837.225952,393.435364 838.260864,388.805695 
	C846.639587,351.322662 855.276733,313.897400 863.809082,276.448639 
	C865.532349,268.884888 867.145569,261.296082 868.952026,253.069946 
	C866.035034,252.732590 863.620117,252.237076 861.200195,252.211853 
	C852.038025,252.116348 842.874207,252.171783 833.710999,252.173615 
	C818.216858,252.176712 802.722412,252.138062 787.228760,252.224777 
	C784.254456,252.241425 781.068115,251.651535 780.099609,256.255310 
	C776.986450,271.053986 773.459534,285.765259 770.144348,300.521942 
	C769.281982,304.360321 768.609802,308.241425 767.681641,312.960022 
	C779.318298,312.960022 790.183960,312.960022 802.049866,312.960022 
	C800.718567,314.988159 800.175781,316.168915 799.325806,317.055054 
	C790.789246,325.955719 781.007446,333.151886 769.141357,336.786865 
	C754.693604,341.212708 740.935974,339.989502 729.807007,328.645569 
	C721.247925,319.921173 716.421936,309.116302 716.035156,296.813629 
	C714.803223,257.629059 729.849792,226.586517 764.169495,206.798126 
	C783.203552,195.823257 804.641968,198.805481 817.784912,218.478699 
	C819.314880,220.768768 820.591736,221.346481 822.983765,219.647491 
	C838.444763,208.665695 854.008301,197.827484 869.389709,186.736191 
	C870.475647,185.953110 871.258118,183.090424 870.689331,181.919754 
	C861.981689,163.995956 849.180420,149.957504 830.686462,141.849701 
	C811.759155,133.551895 792.270874,134.214920 773.071472,140.315506 
	C742.457458,150.043076 719.187561,170.004105 699.984924,195.114243 
	C685.895020,213.538879 674.973450,233.764740 669.032349,256.191223 
	C665.349731,270.092468 662.725098,284.419769 661.248291,298.723419 
	C659.312317,317.473969 662.055786,335.999878 669.218262,353.548492 
	C677.273438,373.284363 690.509033,388.515594 710.613525,396.594513 
	C732.946899,405.569183 755.255554,403.492340 777.263000,394.873749 
	C782.185242,392.946106 787.080200,390.948669 791.998596,388.998322 
M151.636841,327.915192 
	C149.113602,326.056519 146.590363,324.197845 143.913071,322.225677 
	C143.028793,322.986511 142.128281,323.494751 141.595154,324.259155 
	C130.278122,340.486633 119.030205,356.762360 107.690628,372.973999 
	C105.843964,375.614075 106.284027,377.439606 108.836739,379.184509 
	C122.457222,388.494843 137.341202,395.050995 153.332443,398.867859 
	C177.551620,404.648621 201.657730,403.127350 225.279068,395.813721 
	C254.455750,386.780060 274.867706,367.644714 285.516541,339.130859 
	C289.830170,327.580414 292.042328,315.123260 294.142578,302.895203 
	C297.783447,281.697845 288.669952,262.903809 270.151154,252.161560 
	C257.401520,244.765823 243.587936,239.963455 229.408157,236.018250 
	C222.056030,233.972687 214.813858,231.330460 207.809570,228.294388 
	C201.169846,225.416321 199.035873,220.638611 200.087234,213.716980 
	C201.528397,204.229233 210.154144,195.990067 219.695816,195.082916 
	C237.298370,193.409332 253.847748,196.377243 268.914978,206.138031 
	C273.600555,209.173401 278.516754,211.852737 283.539642,214.820480 
	C295.797638,197.036667 307.857452,179.540375 320.600769,161.052429 
	C314.250153,156.626373 308.541016,151.715637 302.049011,148.287445 
	C276.802521,134.955750 249.781097,133.000671 222.374908,138.679352 
	C189.991394,145.389374 166.785355,164.638000 151.985916,194.103088 
	C144.620972,208.766434 141.122543,224.498322 140.246170,240.730164 
	C139.276794,258.685272 145.790924,273.774292 161.356140,283.202087 
	C170.341080,288.644287 180.604752,292.147797 190.574005,295.744690 
	C200.886887,299.465546 211.878983,301.430145 221.961548,305.632385 
	C235.696274,311.356781 239.394226,321.257996 230.616486,333.865173 
	C226.028778,340.454315 219.008667,343.346893 211.277832,343.895203 
	C189.875275,345.413116 169.882370,341.215881 151.636841,327.915192 
M1461.524170,370.016174 
	C1466.363403,363.292023 1471.824097,356.922913 1475.911377,349.769196 
	C1484.208252,335.247589 1487.974365,319.112152 1489.682739,302.654053 
	C1491.776978,282.477936 1485.602783,265.617096 1467.962891,253.929138 
	C1455.566040,245.715256 1441.708252,241.219437 1427.668091,236.959427 
	C1419.265015,234.409821 1410.921997,231.558441 1402.788574,228.259430 
	C1396.751343,225.810684 1394.584839,221.547745 1395.019043,215.641174 
	C1395.713013,206.204819 1402.633911,197.203537 1411.969238,195.936905 
	C1420.235352,194.815369 1428.841431,194.783371 1437.145752,195.677780 
	C1451.112915,197.182114 1462.631592,204.951324 1474.080322,212.407364 
	C1477.259644,214.477890 1479.018555,214.979095 1481.533447,211.198715 
	C1491.846802,195.695496 1502.522217,180.431732 1513.182495,165.162247 
	C1514.997192,162.562836 1514.903442,160.673874 1512.359741,158.874634 
	C1507.343018,155.326050 1502.647827,151.161575 1497.250977,148.339691 
	C1473.318237,135.826080 1447.868652,133.480789 1421.545898,138.056229 
	C1384.937744,144.419510 1360.069092,165.610016 1344.956421,198.953400 
	C1339.190918,211.674026 1336.781860,225.170532 1335.795288,239.084167 
	C1334.440674,258.186279 1340.448608,274.207367 1357.188721,283.600555 
	C1369.215942,290.349365 1382.959717,294.078888 1396.021606,298.929474 
	C1404.259277,301.988525 1413.079834,303.777679 1420.862793,307.683044 
	C1429.966675,312.251343 1432.976807,318.958191 1428.522095,329.251953 
	C1424.372437,338.840881 1416.407227,342.924225 1406.886475,343.820496 
	C1383.959717,345.978851 1362.978027,340.464630 1344.472656,326.391876 
	C1338.711304,322.010559 1338.239746,322.115021 1334.120605,328.025787 
	C1323.757080,342.897156 1313.484253,357.832764 1302.993896,372.614044 
	C1300.735718,375.795715 1301.469971,377.746521 1304.390991,379.500275 
	C1308.671509,382.070129 1312.911133,384.726593 1317.316162,387.067383 
	C1341.734985,400.043213 1367.675903,404.472076 1395.108154,401.139038 
	C1420.451904,398.059723 1443.351807,389.985626 1461.524170,370.016174 
M349.802673,377.670227 
	C367.026123,397.526459 388.233521,406.987610 414.334106,399.950378 
	C454.082367,389.233551 481.031769,362.914001 496.699646,325.853882 
	C504.067261,308.426880 507.464203,289.245117 511.922546,270.681335 
	C519.495239,239.149887 526.514709,207.485199 533.701111,175.861603 
	C536.125000,165.195175 538.349915,154.483490 540.709717,143.589279 
	C539.409912,143.331177 538.618042,143.037888 537.825562,143.036636 
	C521.492798,143.010696 505.159393,143.091934 488.827667,142.959000 
	C485.386047,142.930984 484.671234,144.970932 484.090881,147.541901 
	C482.222900,155.817764 480.344910,164.091385 478.459351,172.363266 
	C469.107758,213.388840 459.591370,254.377914 450.504059,295.461914 
	C448.019775,306.693451 443.042847,316.119659 434.135590,323.216095 
	C426.609833,329.211853 418.051300,333.166901 408.214905,330.029694 
	C396.606995,326.327545 390.677643,313.729828 393.706879,300.306061 
	C405.166016,249.526199 416.663239,198.754929 428.133881,147.977692 
	C428.446136,146.595612 428.618805,145.182007 428.933594,143.329849 
	C426.709564,143.197540 425.084045,143.018738 423.458374,143.016922 
	C408.625488,143.000320 393.788635,143.208145 378.962189,142.902008 
	C374.502594,142.809921 372.954987,144.450729 372.054169,148.509521 
	C365.604767,177.569138 358.786285,206.547485 352.436462,235.628387 
	C346.267883,263.879242 339.640869,292.074982 334.879761,320.573029 
	C331.474060,340.958160 336.856995,360.221283 349.802673,377.670227 
M1060.032349,230.366592 
	C1058.295044,202.487335 1056.528931,174.609818 1054.859375,146.726501 
	C1054.664429,143.469254 1052.824219,143.001358 1050.196289,143.015152 
	C1041.364868,143.061539 1032.437988,143.850708 1023.724243,142.837204 
	C1011.584167,141.425171 1004.794983,145.291504 999.233398,156.920975 
	C984.951965,186.784149 968.873047,215.786880 953.551208,245.153625 
	C940.393982,270.371460 927.300659,295.622650 914.159363,320.848755 
	C902.238708,343.731720 890.269409,366.589386 878.374268,389.485565 
	C875.997986,394.059631 876.550903,394.845917 881.857666,394.855286 
	C896.021667,394.880280 910.203308,394.445099 924.341980,395.043732 
	C930.882935,395.320648 933.847900,392.599792 936.328796,387.217834 
	C942.945801,372.863342 949.902100,358.664429 956.790222,344.436005 
	C971.581970,313.881287 986.398132,283.338348 1001.248901,252.812302 
	C1003.805054,247.558151 1006.581909,242.411285 1009.601868,236.544403 
	C1010.064087,245.151764 1010.619080,252.785263 1010.857544,260.428619 
	C1011.615234,284.716034 1012.301636,309.005951 1012.925232,333.297211 
	C1013.399475,351.772675 1013.830933,370.250458 1014.066040,388.729919 
	C1014.123169,393.222229 1015.750671,394.977112 1020.280334,394.929688 
	C1035.276001,394.772675 1050.277222,394.701294 1065.269531,394.972839 
	C1069.935181,395.057373 1071.376953,393.665192 1071.012817,389.020355 
	C1069.259155,366.652985 1067.704102,344.269684 1066.162598,321.886230 
	C1064.083618,291.699280 1062.081177,261.507050 1060.032349,230.366592 
M1131.953369,275.382965 
	C1122.949463,314.875244 1113.945557,354.367523 1104.791016,394.520325 
	C1107.256470,394.664246 1109.021851,394.857056 1110.787109,394.857361 
	C1160.433960,394.865753 1210.080811,394.807770 1259.727295,394.930908 
	C1263.951416,394.941376 1266.027588,393.760498 1266.932617,389.473358 
	C1270.503174,372.557648 1274.404419,355.712067 1278.081665,338.818420 
	C1279.540527,332.116119 1279.420288,332.078033 1272.360840,332.076721 
	C1242.039673,332.071014 1211.718384,332.082825 1181.397217,332.050018 
	C1179.354004,332.047791 1177.311157,331.729980 1174.704834,331.511810 
	C1188.995239,268.492157 1203.122437,206.192032 1217.235962,143.951797 
	C1215.931519,143.463318 1215.473755,143.142975 1215.014893,143.141617 
	C1198.356201,143.091934 1181.695801,142.976501 1165.041016,143.223999 
	C1163.667358,143.244415 1161.518555,145.546860 1161.109009,147.142853 
	C1158.506470,157.285934 1156.265259,167.522522 1153.953979,177.739395 
	C1146.653809,210.009598 1139.375244,242.284683 1131.953369,275.382965 
M587.007446,190.482681 
	C583.830933,204.587311 580.685242,218.698959 577.472473,232.795334 
	C565.580322,284.972961 553.713196,337.156464 541.677185,389.300903 
	C540.628845,393.842804 542.046753,394.935425 546.228577,394.902008 
	C560.550598,394.787567 574.877014,394.702545 589.195312,394.962585 
	C593.446289,395.039825 595.131897,393.361664 595.918579,389.502533 
	C597.445618,382.011108 599.246460,374.575409 600.941711,367.118408 
	C611.885071,318.982056 622.842651,270.848907 633.770264,222.708984 
	C639.361816,198.076172 644.856750,173.421310 650.509338,148.802582 
	C651.403931,144.906433 651.068848,142.898224 646.275024,142.963852 
	C631.288696,143.169037 616.297424,143.089600 601.308960,142.987183 
	C598.429565,142.967514 597.376343,143.966339 596.763672,146.841141 
	C593.715088,161.145264 590.367493,175.385635 587.007446,190.482681 
M983.421021,488.921082 
	C987.904175,489.663483 989.289734,487.672333 988.982910,483.326752 
	C988.642822,478.509979 988.905212,473.650665 988.905212,468.809906 
	C989.357483,468.747620 989.809753,468.685333 990.262024,468.623047 
	C992.352051,471.792267 994.446472,474.958557 996.530945,478.131409 
	C999.583374,482.777588 1000.874939,482.764221 1003.846802,478.120514 
	C1005.891602,474.925446 1008.001343,471.771912 1010.082031,468.599823 
	C1011.117737,474.426697 1011.193787,479.743347 1011.086060,485.056244 
	C1011.031311,487.756256 1011.951050,489.157196 1014.821655,488.956177 
	C1016.313721,488.851685 1017.832214,488.806213 1019.315491,488.959381 
	C1022.721069,489.311005 1024.032593,488.046326 1023.984436,484.470032 
	C1023.818115,472.145111 1023.958862,459.816223 1023.909363,447.489166 
	C1023.904297,446.227478 1023.808594,444.603729 1023.060181,443.776642 
	C1020.965332,441.461395 1010.861938,443.473694 1009.186646,446.253479 
	C1006.404480,450.870026 1003.521423,455.425812 1000.148132,460.866394 
	C997.257874,456.346344 994.574341,453.094574 992.945496,449.380219 
	C990.516724,443.841919 986.564148,442.702423 980.999390,442.878601 
	C976.813538,443.011078 975.991028,444.576599 976.041016,448.251434 
	C976.197327,459.743683 976.378113,471.249359 975.972107,482.729401 
	C975.786255,487.983002 977.593079,489.729767 983.421021,488.921082 
M348.680603,478.865082 
	C352.073761,484.251495 354.560150,490.386749 363.151489,489.090363 
	C367.061035,488.500458 368.162933,487.514923 368.099640,483.731873 
	C367.901886,471.908325 367.849701,460.075409 368.117645,448.254669 
	C368.214966,443.961792 366.675873,442.868103 362.651703,442.974396 
	C355.135498,443.172913 355.130310,442.971436 355.129974,450.592316 
	C355.129913,451.924927 355.128021,453.257507 355.127869,454.590118 
	C355.127563,457.865021 355.127777,461.139893 355.127777,464.414795 
	C354.589508,464.470032 354.051239,464.525299 353.512970,464.580536 
	C350.653839,460.127502 347.580627,455.794952 344.989685,451.190979 
	C341.742798,445.421295 337.879181,441.600372 330.463379,442.922333 
	C327.333832,443.480194 326.110046,444.432343 326.132141,447.559662 
	C326.218140,459.718994 326.324341,471.882141 326.105011,484.038116 
	C325.992401,490.279144 330.297699,488.599854 333.673737,488.891876 
	C337.133179,489.191101 339.413422,488.620300 339.141998,484.176422 
	C338.792999,478.462128 339.057159,472.710358 339.057159,466.815613 
	C340.037048,467.052368 340.486969,467.022461 340.621735,467.214111 
	C343.199127,470.879181 345.739441,474.570312 348.680603,478.865082 
M858.099976,473.448700 
	C858.101562,471.783203 857.917847,470.092529 858.140259,468.457062 
	C858.757446,463.918549 856.710632,462.518585 852.431458,462.912811 
	C849.293762,463.201874 846.107361,463.007599 842.943787,462.958130 
	C839.844299,462.909637 836.905396,462.563629 837.078552,467.338013 
	C837.220825,471.262695 836.842041,474.940308 842.554932,474.145874 
	C843.052551,474.076691 843.611267,474.446747 844.422241,474.700623 
	C838.801758,479.213226 833.415100,479.354218 828.748352,475.432098 
	C823.773071,471.250702 822.559143,465.836243 825.363281,460.333282 
	C827.714905,455.718414 835.536011,451.775574 839.879211,454.497955 
	C846.907654,458.903564 850.336487,453.873779 854.974670,451.000153 
	C851.042480,444.574097 843.025330,441.373718 833.283569,442.031708 
	C821.082764,442.855774 810.693359,454.399963 811.094299,466.687469 
	C811.515076,479.583679 821.765991,489.930267 834.442322,489.925079 
	C839.373535,489.923035 844.319580,488.814880 849.232361,488.983459 
	C858.558472,489.303406 858.840515,489.222900 858.153259,479.905518 
	C858.018860,478.082703 858.111023,476.243134 858.099976,473.448700 
M1357.832520,483.289032 
	C1357.836792,482.457367 1357.638184,481.559113 1357.884888,480.806915 
	C1358.527222,478.847839 1358.907471,475.781708 1360.217529,475.269867 
	C1363.173828,474.114960 1365.888794,475.259338 1367.341187,478.766357 
	C1368.469604,481.491180 1370.232788,483.981567 1371.923828,486.431183 
	C1372.612427,487.428558 1373.813965,488.649384 1374.855469,488.722534 
	C1378.724121,488.994232 1382.623291,488.830841 1387.828125,488.830841 
	C1384.515991,483.101227 1382.055908,478.468048 1379.215454,474.081116 
	C1377.653320,471.668732 1377.248901,470.126801 1379.454590,467.660614 
	C1383.453003,463.189819 1384.061523,457.768951 1381.432251,452.312073 
	C1378.883179,447.021118 1374.523560,443.599121 1368.680664,443.203705 
	C1361.725342,442.733063 1354.708496,442.894104 1347.737183,443.205566 
	C1346.500732,443.260803 1344.347534,445.367615 1344.324829,446.559662 
	C1344.077026,459.529297 1344.077881,472.507172 1344.326294,485.476807 
	C1344.348755,486.643921 1346.392456,488.271667 1347.819946,488.780457 
	C1349.444824,489.359619 1351.442139,488.801575 1353.259766,488.952606 
	C1356.817627,489.248322 1358.106567,487.514709 1357.832520,483.289032 
M1474.687012,443.035736 
	C1470.326172,442.380798 1468.920898,444.161346 1469.025391,448.597656 
	C1469.307617,460.576843 1469.184692,472.567963 1469.061401,484.552704 
	C1469.028931,487.714600 1470.009888,489.030426 1473.340454,488.979462 
	C1483.159912,488.829163 1492.987915,488.752228 1502.803101,489.008850 
	C1507.729370,489.137665 1506.868652,486.006927 1507.046875,483.064087 
	C1507.247925,479.742340 1506.645752,477.655396 1502.541504,477.861969 
	C1497.061768,478.137787 1491.545898,478.129242 1486.072510,477.797485 
	C1484.666748,477.712311 1483.362061,475.956329 1482.010986,474.967926 
	C1483.329468,473.929718 1484.588013,472.101227 1485.977417,471.995605 
	C1490.943848,471.618042 1495.967285,471.599274 1500.945190,471.876068 
	C1505.648926,472.137543 1505.875977,469.468170 1505.939087,465.902588 
	C1506.006226,462.116577 1505.257080,459.849396 1500.761475,460.101379 
	C1495.783203,460.380463 1490.759399,460.384277 1485.794312,460.002411 
	C1484.461304,459.899902 1483.269775,457.957306 1482.013306,456.859436 
	C1483.248047,455.924988 1484.444946,454.249146 1485.723877,454.183899 
	C1491.368896,453.895996 1497.047241,453.868408 1502.694336,454.142212 
	C1507.500854,454.375183 1506.924438,451.280212 1507.053833,448.244049 
	C1507.191895,445.002350 1506.785889,442.861145 1502.607178,442.974182 
	C1493.624390,443.217224 1484.630371,443.039917 1474.687012,443.035736 
M1299.926514,454.088684 
	C1305.591797,454.075195 1311.265625,453.866577 1316.919800,454.109497 
	C1321.501099,454.306366 1320.944946,451.327942 1320.988647,448.495148 
	C1321.034058,445.562897 1321.319214,442.862091 1316.826416,442.971466 
	C1307.001343,443.210632 1297.164917,443.136841 1287.336060,442.994629 
	C1284.080933,442.947510 1282.969727,444.112366 1283.003662,447.357788 
	C1283.134277,459.853302 1283.112671,472.351593 1283.005615,484.847626 
	C1282.980225,487.819305 1283.952148,489.021484 1287.031128,488.981506 
	C1296.860474,488.853912 1306.696533,488.766083 1316.521362,489.009521 
	C1320.689087,489.112793 1321.134521,487.018524 1321.003906,483.757202 
	C1320.882812,480.736359 1321.555420,477.612976 1316.692993,477.871277 
	C1311.376465,478.153656 1306.015869,478.154572 1300.710327,477.775177 
	C1299.075928,477.658325 1296.503662,476.138672 1296.197510,474.831299 
	C1295.437866,471.587585 1298.324219,471.830780 1300.474976,471.820007 
	C1305.307007,471.795807 1310.143066,471.702087 1314.970459,471.855591 
	C1321.565796,472.065247 1318.578613,466.663391 1319.505005,463.839020 
	C1320.573608,460.581024 1317.742798,460.151672 1315.216919,460.150391 
	C1310.051514,460.147766 1304.878662,460.299347 1299.725952,460.043335 
	C1298.457764,459.980316 1297.255249,458.595184 1296.022461,457.817841 
	C1297.023560,456.587189 1298.024780,455.356537 1299.926514,454.088684 
M622.534302,488.910553 
	C630.367371,488.909485 638.204285,488.762695 646.032043,488.965820 
	C650.248779,489.075256 649.984924,486.451935 649.902588,483.706451 
	C649.820862,480.984863 650.720947,477.757874 646.040100,477.899628 
	C640.379089,478.071014 634.697266,478.118683 629.049805,477.787750 
	C627.626831,477.704407 626.300415,475.974152 624.929626,475.000763 
	C626.239075,473.946289 627.481445,472.099731 628.870178,471.982117 
	C633.504272,471.589722 638.221069,471.481232 642.849121,471.897797 
	C647.824951,472.345612 648.049500,469.739655 648.161804,465.901978 
	C648.284912,461.695618 647.257751,459.728455 642.630798,460.087463 
	C637.992981,460.447357 633.288879,460.353699 628.647400,460.008301 
	C627.341736,459.911102 626.154175,458.228333 624.912415,457.272858 
	C626.204407,456.212982 627.442444,454.326691 628.797791,454.238251 
	C634.274780,453.880890 639.803162,453.822174 645.283020,454.149048 
	C649.825012,454.419983 649.973267,451.892975 649.978271,448.551025 
	C649.983276,445.196930 649.811157,442.816803 645.277222,442.958008 
	C635.786926,443.253693 626.277832,443.171844 616.782532,442.964783 
	C613.037048,442.883057 611.880432,444.204193 611.950745,447.888489 
	C612.151062,458.384277 611.956543,468.886902 612.037292,479.385925 
	C612.121765,490.358765 610.513733,488.790802 622.534302,488.910553 
M1086.079590,485.538605 
	C1086.846680,477.208740 1088.140503,478.119385 1078.861572,477.928864 
	C1074.044189,477.829987 1069.205811,477.811371 1064.430298,477.278290 
	C1063.227661,477.144073 1062.230225,475.171295 1061.138550,474.043457 
	C1062.394165,473.307190 1063.623047,471.995758 1064.910278,471.935730 
	C1070.063721,471.695374 1075.247681,471.627411 1080.396484,471.917175 
	C1084.400635,472.142487 1085.231567,470.287933 1085.006714,466.833496 
	C1084.792236,463.539215 1085.703979,459.862823 1080.295044,460.108643 
	C1075.307007,460.335297 1070.300415,460.143127 1065.302246,460.164581 
	C1062.978516,460.174530 1060.443359,459.971832 1061.252563,456.871552 
	C1061.565796,455.671661 1063.879395,454.302368 1065.350464,454.218781 
	C1070.997681,453.897980 1076.672607,454.064636 1082.337280,454.054443 
	C1088.543945,454.043304 1085.126709,448.819855 1086.354980,446.151337 
	C1086.531738,445.767456 1083.990112,443.235626 1082.667358,443.201172 
	C1072.677368,442.941315 1062.677124,443.108765 1052.681152,443.022888 
	C1049.859375,442.998627 1048.883911,444.185150 1048.899170,446.914459 
	C1048.969971,459.576538 1048.987305,472.239746 1048.884766,484.901398 
	C1048.859985,487.950775 1050.049438,488.996246 1053.022095,488.963074 
	C1062.684326,488.855286 1072.350586,489.021820 1082.009521,488.812195 
	C1083.370850,488.782654 1084.699585,487.246490 1086.079590,485.538605 
M1430.439941,460.101624 
	C1428.496338,459.651489 1426.427246,459.475586 1424.650391,458.661407 
	C1423.312744,458.048523 1422.349976,456.617249 1421.220459,455.550262 
	C1422.484375,454.684662 1423.721924,453.141296 1425.017456,453.090820 
	C1427.947754,452.976624 1431.058472,453.127075 1433.824341,454.015289 
	C1440.660400,456.210602 1440.450684,456.305481 1444.368530,450.263092 
	C1446.254028,447.355164 1445.720215,445.804596 1442.734131,444.522858 
	C1435.591797,441.457245 1428.087402,441.296082 1420.679565,442.523254 
	C1412.581055,443.864838 1407.505127,449.565094 1407.148193,456.442139 
	C1406.782227,463.493286 1410.536987,467.671082 1419.603271,470.239838 
	C1420.877319,470.600830 1422.210693,470.748810 1423.491577,471.089722 
	C1426.217896,471.815460 1429.038208,472.354523 1431.590576,473.487000 
	C1432.621826,473.944489 1433.490356,475.725464 1433.571899,476.961060 
	C1433.612427,477.574615 1431.687866,478.923248 1430.684204,478.892639 
	C1426.910522,478.777496 1422.970947,478.814392 1419.422119,477.724640 
	C1412.285278,475.533203 1410.888794,475.812164 1408.337769,482.882751 
	C1407.956177,483.940308 1408.930908,486.512146 1409.849609,486.855896 
	C1419.425415,490.439178 1429.223999,491.620575 1439.096558,488.035675 
	C1444.907349,485.925690 1447.523071,481.437500 1447.943115,475.394836 
	C1448.361328,469.375610 1445.333130,465.561096 1440.214233,463.241516 
	C1437.354248,461.945557 1434.242798,461.205017 1430.439941,460.101624 
M108.543205,469.144318 
	C110.949776,469.765747 113.350151,470.412598 115.764793,471.000854 
	C117.864021,471.512268 120.171066,471.583466 122.033272,472.537903 
	C123.866150,473.477356 125.255173,475.282806 126.838943,476.708252 
	C125.035309,477.509949 123.257538,478.898376 121.422142,478.979309 
	C118.482796,479.108826 115.096375,479.147491 112.625679,477.845459 
	C106.785156,474.767609 103.975456,477.297058 101.353958,482.168213 
	C99.964310,484.750427 100.104637,485.958221 102.900299,487.031433 
	C111.554428,490.353760 120.382896,491.095154 129.364212,488.879181 
	C137.342514,486.910706 140.987289,482.285889 140.893341,474.792786 
	C140.809921,468.140045 136.977493,463.905334 129.279160,461.883484 
	C125.096619,460.785004 120.877296,459.776917 116.796432,458.373627 
	C115.690987,457.993500 115.029358,456.322754 114.164024,455.244354 
	C115.295105,454.478546 116.422623,453.077179 117.557953,453.070831 
	C120.498558,453.054352 123.595100,453.188721 126.355362,454.096283 
	C133.337433,456.392029 133.279678,456.576813 136.995743,449.924316 
	C137.544815,448.941345 138.057251,447.937866 138.782761,446.575745 
	C129.128098,441.246155 119.408302,440.380463 109.314651,443.969299 
	C103.493858,446.038910 100.452644,450.565063 100.202103,456.504028 
	C99.967461,462.066071 102.452545,466.489258 108.543205,469.144318 
M182.465881,489.998566 
	C193.189407,489.354767 201.248001,483.471405 201.809082,474.767487 
	C202.418686,465.311401 202.101837,455.785828 201.869186,446.298370 
	C201.842056,445.192444 199.953094,443.677399 198.618759,443.180481 
	C197.154755,442.635254 195.316635,443.199371 193.670837,443.016449 
	C189.818359,442.588348 188.813354,444.389343 188.921448,447.980011 
	C189.136871,455.136383 189.032837,462.304443 188.959076,469.466644 
	C188.912979,473.941803 186.386841,476.836151 182.666382,476.947418 
	C178.786591,477.063507 176.064682,474.039856 176.015594,469.318024 
	C175.939392,461.989227 175.867767,454.656708 176.026321,447.330811 
	C176.096756,444.075958 174.924179,442.696564 171.671677,443.027222 
	C170.351685,443.161438 168.988220,443.222015 167.679825,443.049072 
	C163.867920,442.545258 162.759979,444.240997 162.865677,447.890442 
	C163.077789,455.213531 162.896210,462.547546 162.911285,469.876984 
	C162.936325,482.051880 169.411362,489.011169 182.465881,489.998566 
M717.037964,464.453003 
	C713.970520,472.271790 710.903137,480.090576 707.425720,488.954346 
	C713.938660,488.099731 720.320374,491.936646 723.487793,484.116882 
	C728.376282,484.166870 733.427979,483.533112 738.064453,484.639313 
	C739.678284,485.024384 740.299255,489.437378 744.086975,488.992279 
	C746.927795,488.658447 749.839417,488.926361 753.479858,488.926361 
	C752.653076,485.968872 752.312012,484.211548 751.678040,482.567108 
	C747.075500,470.627289 742.302429,458.751587 737.852417,446.755768 
	C736.793518,443.901337 735.373169,442.622498 732.434570,443.046600 
	C729.277100,443.502228 725.328186,441.426422 723.703430,446.453278 
	C721.817749,452.287354 719.438232,457.961823 717.037964,464.453003 
M418.354584,445.968048 
	C416.700470,440.958984 412.490692,443.303864 409.424713,443.246002 
	C407.884705,443.216980 405.490387,444.957947 404.871887,446.467712 
	C399.829254,458.776398 395.097504,471.212891 390.324677,483.631073 
	C389.763672,485.090729 389.526733,486.674927 388.962250,488.900421 
	C392.865631,488.900421 396.010803,489.091370 399.112457,488.807526 
	C400.373383,488.692108 401.984436,487.843597 402.675476,486.816742 
	C406.529785,481.089539 416.355072,481.154205 420.370300,486.992584 
	C420.949738,487.835205 422.125793,488.715912 423.075714,488.774933 
	C426.512451,488.988464 429.970551,488.858978 434.702698,488.858978 
	C429.106079,474.179993 423.869324,460.444855 418.354584,445.968048 
M1166.147095,473.636810 
	C1164.378540,478.377625 1162.609863,483.118439 1160.720703,488.182495 
	C1162.447266,488.532898 1163.395874,488.926941 1164.321655,488.879211 
	C1168.810669,488.647644 1174.348755,490.828430 1176.113647,483.997314 
	C1181.014771,484.035034 1185.915771,484.072754 1190.816895,484.110474 
	C1193.967773,492.003296 1200.199951,488.231506 1206.644775,488.781647 
	C1200.783203,473.494690 1195.571533,459.168121 1189.557739,445.186523 
	C1188.838989,443.515350 1183.773071,443.379608 1180.687500,443.225739 
	C1179.458862,443.164490 1177.485229,444.720276 1176.961304,445.996063 
	C1173.301636,454.907104 1169.932983,463.937714 1166.147095,473.636810 
M581.770813,443.086365 
	C578.980530,442.769684 577.215271,443.585724 576.150574,446.571289 
	C574.009521,452.575409 571.391602,458.409485 568.439758,465.607941 
	C565.571899,458.448456 563.350342,452.591309 560.842590,446.859375 
	C560.209412,445.411957 558.772278,443.455566 557.514099,443.302917 
	C553.666504,442.836060 549.726196,443.133301 545.704041,443.133301 
	C545.762695,444.387451 545.661072,444.915131 545.825562,445.339752 
	C551.103943,458.964935 556.371704,472.594421 561.729126,486.188568 
	C563.446716,490.546814 567.399841,488.498138 570.456055,488.922974 
	C573.093384,489.289612 574.719299,488.306549 575.672668,485.574371 
	C577.862854,479.298431 580.397400,473.143005 582.771362,466.930695 
	C585.711426,459.237000 588.630371,451.535217 591.846313,443.080139 
	C588.247131,443.080139 585.458130,443.080139 581.770813,443.086365 
M878.952454,474.197876 
	C883.463684,488.570740 903.329041,495.386993 917.574829,485.357086 
	C919.323730,484.125824 923.154663,482.957916 920.655212,479.322083 
	C917.796875,475.164185 912.408081,473.153503 909.637817,474.988251 
	C904.932861,478.104340 898.777161,478.077667 895.302979,474.926270 
	C891.111816,471.124390 889.897766,466.163483 891.983887,461.363007 
	C894.167542,456.338104 898.682007,453.301270 904.586792,455.136108 
	C912.088379,457.467072 914.867798,452.284302 919.161682,448.775116 
	C911.629272,441.038208 899.580017,439.800110 889.365173,445.353851 
	C879.838440,450.533478 875.856262,460.995972 878.952454,474.197876 
M1224.236328,464.303406 
	C1226.594238,470.520966 1228.928223,476.747803 1231.320435,482.952148 
	C1232.506592,486.028320 1233.297485,489.206696 1237.926270,489.049347 
	C1242.304443,488.900543 1245.787109,488.907013 1247.598511,483.634247 
	C1251.486450,472.317871 1255.932739,461.186554 1260.384399,450.073242 
	C1262.981323,443.590027 1262.781128,443.448151 1255.764282,442.973755 
	C1250.461060,442.615204 1247.615234,444.179413 1246.084717,449.488861 
	C1244.607178,454.615356 1242.021118,459.422302 1239.424194,465.543030 
	C1236.789551,458.909515 1234.234619,453.653198 1232.660522,448.117920 
	C1231.526978,444.131927 1229.729858,442.505310 1225.699707,443.042603 
	C1224.062866,443.260895 1222.370972,443.136993 1220.707886,443.072632 
	C1216.917236,442.925964 1216.509521,444.839325 1217.699585,447.832123 
	C1219.787354,453.082245 1221.849121,458.342651 1224.236328,464.303406 
M475.806793,461.604980 
	C475.887817,454.924377 475.887817,454.924255 482.316254,454.886780 
	C483.316162,454.880951 484.316345,454.858368 485.315887,454.874969 
	C490.464752,454.960449 488.789764,451.054382 488.974396,448.408539 
	C489.156158,445.803772 489.630463,442.879608 485.303467,442.998505 
	C479.141937,443.167816 472.972229,443.038635 466.806000,443.037903 
	C461.026215,443.037231 455.246429,443.037750 449.654205,443.037750 
	C447.497864,453.838867 447.917358,454.580414 457.305450,454.825897 
	C461.075897,454.924469 462.214935,456.527435 462.158173,460.034943 
	C462.026031,468.198853 462.206329,476.367920 462.068878,484.531677 
	C462.016174,487.661896 462.942596,489.288849 466.319519,488.950836 
	C467.804382,488.802246 469.327667,488.813141 470.814514,488.953339 
	C474.457825,489.296844 475.936096,487.786011 475.849731,484.079712 
	C475.682861,476.917511 475.803467,469.748596 475.806793,461.604980 
M1115.596924,443.028137 
	C1113.211670,443.386200 1109.158936,443.139648 1108.767090,444.220428 
	C1107.763062,446.989288 1108.010010,450.423767 1108.609619,453.421570 
	C1108.770996,454.228912 1111.967651,454.487732 1113.796997,454.875916 
	C1114.592163,455.044617 1115.467163,455.003876 1116.281250,454.886810 
	C1120.210693,454.321564 1121.850342,456.331787 1121.857422,459.947449 
	C1121.870972,466.756378 1122.109375,473.590424 1121.619141,480.368103 
	C1121.047241,488.278229 1121.373901,488.960785 1129.267090,488.935547 
	C1129.433228,488.934998 1129.601562,488.919128 1129.765259,488.938995 
	C1133.495361,489.392120 1135.194946,488.166382 1134.984375,483.999664 
	C1134.649414,477.369568 1134.906006,470.710022 1134.896729,464.062927 
	C1134.884277,455.186096 1134.878174,454.959473 1143.881836,454.974854 
	C1148.491821,454.982727 1148.949707,452.637207 1148.911499,449.012451 
	C1148.874634,445.507843 1148.721924,442.845093 1143.987305,442.971161 
	C1134.854126,443.214386 1125.709595,443.033844 1115.596924,443.028137 
M782.270142,443.038818 
	C772.940002,443.045898 774.189819,442.634766 774.155701,451.022278 
	C774.114380,461.179382 774.144714,471.336761 774.125122,481.493988 
	C774.110535,489.028076 774.103271,488.806335 781.781311,489.017059 
	C785.964355,489.131897 787.210388,487.697693 787.170593,483.594421 
	C787.056091,471.782745 787.377991,459.967407 787.421326,448.153137 
	C787.431274,445.432892 787.177795,442.572327 782.270142,443.038818 
M524.041016,471.498535 
	C524.044556,463.855042 523.793091,456.199677 524.148560,448.572571 
	C524.357361,444.092102 522.810608,442.440033 518.484375,443.028320 
	C517.342224,443.183655 516.155945,443.125885 514.999146,443.040833 
	C512.273438,442.840515 511.089447,443.964264 511.104218,446.781799 
	C511.171204,459.575836 511.158844,472.370667 511.092712,485.164734 
	C511.078430,487.929901 512.190369,489.130676 514.962524,488.938843 
	C516.616028,488.824432 518.292175,488.821777 519.944214,488.949280 
	C522.893799,489.176910 524.204712,488.040100 524.081787,484.958221 
	C523.916260,480.810791 524.040955,476.651794 524.041016,471.498535 
M237.977661,443.437286 
	C235.829575,443.315125 233.655716,443.360992 231.538696,443.036224 
	C226.941422,442.330994 225.912659,444.411285 226.021317,448.674225 
	C226.292694,459.322266 226.098083,469.981873 226.114014,480.636810 
	C226.126999,489.323639 226.142090,489.323303 234.892410,488.930206 
	C235.224884,488.915253 235.677994,489.056610 235.871155,488.889557 
	C236.944641,487.961334 238.847687,486.964874 238.852798,485.983398 
	C238.925461,472.015869 238.738312,458.046936 237.977661,443.437286 
M276.519592,467.046478 
	C276.584595,469.933319 273.705444,474.189789 279.298096,474.689270 
	C284.400604,475.144989 289.576141,474.744171 294.718414,474.807678 
	C297.990082,474.848053 297.858368,472.650299 297.876129,470.401031 
	C297.894623,468.064575 297.752991,466.019470 294.567108,466.115082 
	C288.775665,466.288849 282.981323,466.365540 276.519592,467.046478 
z"/>
<path fill="#FEFEFE" opacity="1.000000" stroke="none" 
	d="
M791.987732,388.983398 
	C787.080200,390.948669 782.185242,392.946106 777.263000,394.873749 
	C755.255554,403.492340 732.946899,405.569183 710.613525,396.594513 
	C690.509033,388.515594 677.273438,373.284363 669.218262,353.548492 
	C662.055786,335.999878 659.312317,317.473969 661.248291,298.723419 
	C662.725098,284.419769 665.349731,270.092468 669.032349,256.191223 
	C674.973450,233.764740 685.895020,213.538879 699.984924,195.114243 
	C719.187561,170.004105 742.457458,150.043076 773.071472,140.315506 
	C792.270874,134.214920 811.759155,133.551895 830.686462,141.849701 
	C849.180420,149.957504 861.981689,163.995956 870.689331,181.919754 
	C871.258118,183.090424 870.475647,185.953110 869.389709,186.736191 
	C854.008301,197.827484 838.444763,208.665695 822.983765,219.647491 
	C820.591736,221.346481 819.314880,220.768768 817.784912,218.478699 
	C804.641968,198.805481 783.203552,195.823257 764.169495,206.798126 
	C729.849792,226.586517 714.803223,257.629059 716.035156,296.813629 
	C716.421936,309.116302 721.247925,319.921173 729.807007,328.645569 
	C740.935974,339.989502 754.693604,341.212708 769.141357,336.786865 
	C781.007446,333.151886 790.789246,325.955719 799.325806,317.055054 
	C800.175781,316.168915 800.718567,314.988159 802.049866,312.960022 
	C790.183960,312.960022 779.318298,312.960022 767.681641,312.960022 
	C768.609802,308.241425 769.281982,304.360321 770.144348,300.521942 
	C773.459534,285.765259 776.986450,271.053986 780.099609,256.255310 
	C781.068115,251.651535 784.254456,252.241425 787.228760,252.224777 
	C802.722412,252.138062 818.216858,252.176712 833.710999,252.173615 
	C842.874207,252.171783 852.038025,252.116348 861.200195,252.211853 
	C863.620117,252.237076 866.035034,252.732590 868.952026,253.069946 
	C867.145569,261.296082 865.532349,268.884888 863.809082,276.448639 
	C855.276733,313.897400 846.639587,351.322662 838.260864,388.805695 
	C837.225952,393.435364 835.325012,395.099609 830.559265,394.962799 
	C819.405945,394.642639 808.235229,394.732697 797.075989,394.921875 
	C793.257141,394.986603 791.305847,393.959961 792.109558,389.389740 
	C792.204590,388.912537 792.196167,388.635834 792.196167,388.635834 
	C792.196167,388.635834 791.987732,388.983398 791.987732,388.983398 
z"/>
<path fill="#FEFEFE" opacity="1.000000" stroke="none" 
	d="
M151.943558,328.101562 
	C169.882370,341.215881 189.875275,345.413116 211.277832,343.895203 
	C219.008667,343.346893 226.028778,340.454315 230.616486,333.865173 
	C239.394226,321.257996 235.696274,311.356781 221.961548,305.632385 
	C211.878983,301.430145 200.886887,299.465546 190.574005,295.744690 
	C180.604752,292.147797 170.341080,288.644287 161.356140,283.202087 
	C145.790924,273.774292 139.276794,258.685272 140.246170,240.730164 
	C141.122543,224.498322 144.620972,208.766434 151.985916,194.103088 
	C166.785355,164.638000 189.991394,145.389374 222.374908,138.679352 
	C249.781097,133.000671 276.802521,134.955750 302.049011,148.287445 
	C308.541016,151.715637 314.250153,156.626373 320.600769,161.052429 
	C307.857452,179.540375 295.797638,197.036667 283.539642,214.820480 
	C278.516754,211.852737 273.600555,209.173401 268.914978,206.138031 
	C253.847748,196.377243 237.298370,193.409332 219.695816,195.082916 
	C210.154144,195.990067 201.528397,204.229233 200.087234,213.716980 
	C199.035873,220.638611 201.169846,225.416321 207.809570,228.294388 
	C214.813858,231.330460 222.056030,233.972687 229.408157,236.018250 
	C243.587936,239.963455 257.401520,244.765823 270.151154,252.161560 
	C288.669952,262.903809 297.783447,281.697845 294.142578,302.895203 
	C292.042328,315.123260 289.830170,327.580414 285.516541,339.130859 
	C274.867706,367.644714 254.455750,386.780060 225.279068,395.813721 
	C201.657730,403.127350 177.551620,404.648621 153.332443,398.867859 
	C137.341202,395.050995 122.457222,388.494843 108.836739,379.184509 
	C106.284027,377.439606 105.843964,375.614075 107.690628,372.973999 
	C119.030205,356.762360 130.278122,340.486633 141.595154,324.259155 
	C142.128281,323.494751 143.028793,322.986511 143.913071,322.225677 
	C146.590363,324.197845 149.113602,326.056519 151.943558,328.101562 
z"/>
<path fill="#FEFEFE" opacity="1.000000" stroke="none" 
	d="
M1461.274292,370.268127 
	C1443.351807,389.985626 1420.451904,398.059723 1395.108154,401.139038 
	C1367.675903,404.472076 1341.734985,400.043213 1317.316162,387.067383 
	C1312.911133,384.726593 1308.671509,382.070129 1304.390991,379.500275 
	C1301.469971,377.746521 1300.735718,375.795715 1302.993896,372.614044 
	C1313.484253,357.832764 1323.757080,342.897156 1334.120605,328.025787 
	C1338.239746,322.115021 1338.711304,322.010559 1344.472656,326.391876 
	C1362.978027,340.464630 1383.959717,345.978851 1406.886475,343.820496 
	C1416.407227,342.924225 1424.372437,338.840881 1428.522095,329.251953 
	C1432.976807,318.958191 1429.966675,312.251343 1420.862793,307.683044 
	C1413.079834,303.777679 1404.259277,301.988525 1396.021606,298.929474 
	C1382.959717,294.078888 1369.215942,290.349365 1357.188721,283.600555 
	C1340.448608,274.207367 1334.440674,258.186279 1335.795288,239.084167 
	C1336.781860,225.170532 1339.190918,211.674026 1344.956421,198.953400 
	C1360.069092,165.610016 1384.937744,144.419510 1421.545898,138.056229 
	C1447.868652,133.480789 1473.318237,135.826080 1497.250977,148.339691 
	C1502.647827,151.161575 1507.343018,155.326050 1512.359741,158.874634 
	C1514.903442,160.673874 1514.997192,162.562836 1513.182495,165.162247 
	C1502.522217,180.431732 1491.846802,195.695496 1481.533447,211.198715 
	C1479.018555,214.979095 1477.259644,214.477890 1474.080322,212.407364 
	C1462.631592,204.951324 1451.112915,197.182114 1437.145752,195.677780 
	C1428.841431,194.783371 1420.235352,194.815369 1411.969238,195.936905 
	C1402.633911,197.203537 1395.713013,206.204819 1395.019043,215.641174 
	C1394.584839,221.547745 1396.751343,225.810684 1402.788574,228.259430 
	C1410.921997,231.558441 1419.265015,234.409821 1427.668091,236.959427 
	C1441.708252,241.219437 1455.566040,245.715256 1467.962891,253.929138 
	C1485.602783,265.617096 1491.776978,282.477936 1489.682739,302.654053 
	C1487.974365,319.112152 1484.208252,335.247589 1475.911377,349.769196 
	C1471.824097,356.922913 1466.363403,363.292023 1461.274292,370.268127 
z"/>
<path fill="#FEFEFE" opacity="1.000000" stroke="none" 
	d="
M349.595642,377.378937 
	C336.856995,360.221283 331.474060,340.958160 334.879761,320.573029 
	C339.640869,292.074982 346.267883,263.879242 352.436462,235.628387 
	C358.786285,206.547485 365.604767,177.569138 372.054169,148.509521 
	C372.954987,144.450729 374.502594,142.809921 378.962189,142.902008 
	C393.788635,143.208145 408.625488,143.000320 423.458374,143.016922 
	C425.084045,143.018738 426.709564,143.197540 428.933594,143.329849 
	C428.618805,145.182007 428.446136,146.595612 428.133881,147.977692 
	C416.663239,198.754929 405.166016,249.526199 393.706879,300.306061 
	C390.677643,313.729828 396.606995,326.327545 408.214905,330.029694 
	C418.051300,333.166901 426.609833,329.211853 434.135590,323.216095 
	C443.042847,316.119659 448.019775,306.693451 450.504059,295.461914 
	C459.591370,254.377914 469.107758,213.388840 478.459351,172.363266 
	C480.344910,164.091385 482.222900,155.817764 484.090881,147.541901 
	C484.671234,144.970932 485.386047,142.930984 488.827667,142.959000 
	C505.159393,143.091934 521.492798,143.010696 537.825562,143.036636 
	C538.618042,143.037888 539.409912,143.331177 540.709717,143.589279 
	C538.349915,154.483490 536.125000,165.195175 533.701111,175.861603 
	C526.514709,207.485199 519.495239,239.149887 511.922546,270.681335 
	C507.464203,289.245117 504.067261,308.426880 496.699646,325.853882 
	C481.031769,362.914001 454.082367,389.233551 414.334106,399.950378 
	C388.233521,406.987610 367.026123,397.526459 349.595642,377.378937 
z"/>
<path fill="#FEFEFE" opacity="1.000000" stroke="none" 
	d="
M1060.039062,230.841827 
	C1062.081177,261.507050 1064.083618,291.699280 1066.162598,321.886230 
	C1067.704102,344.269684 1069.259155,366.652985 1071.012817,389.020355 
	C1071.376953,393.665192 1069.935181,395.057373 1065.269531,394.972839 
	C1050.277222,394.701294 1035.276001,394.772675 1020.280334,394.929688 
	C1015.750671,394.977112 1014.123169,393.222229 1014.066040,388.729919 
	C1013.830933,370.250458 1013.399475,351.772675 1012.925232,333.297211 
	C1012.301636,309.005951 1011.615234,284.716034 1010.857544,260.428619 
	C1010.619080,252.785263 1010.064087,245.151764 1009.601868,236.544403 
	C1006.581909,242.411285 1003.805054,247.558151 1001.248901,252.812302 
	C986.398132,283.338348 971.581970,313.881287 956.790222,344.436005 
	C949.902100,358.664429 942.945801,372.863342 936.328796,387.217834 
	C933.847900,392.599792 930.882935,395.320648 924.341980,395.043732 
	C910.203308,394.445099 896.021667,394.880280 881.857666,394.855286 
	C876.550903,394.845917 875.997986,394.059631 878.374268,389.485565 
	C890.269409,366.589386 902.238708,343.731720 914.159363,320.848755 
	C927.300659,295.622650 940.393982,270.371460 953.551208,245.153625 
	C968.873047,215.786880 984.951965,186.784149 999.233398,156.920975 
	C1004.794983,145.291504 1011.584167,141.425171 1023.724243,142.837204 
	C1032.437988,143.850708 1041.364868,143.061539 1050.196289,143.015152 
	C1052.824219,143.001358 1054.664429,143.469254 1054.859375,146.726501 
	C1056.528931,174.609818 1058.295044,202.487335 1060.039062,230.841827 
z"/>
<path fill="#FEFEFE" opacity="1.000000" stroke="none" 
	d="
M1132.020752,274.970428 
	C1139.375244,242.284683 1146.653809,210.009598 1153.953979,177.739395 
	C1156.265259,167.522522 1158.506470,157.285934 1161.109009,147.142853 
	C1161.518555,145.546860 1163.667358,143.244415 1165.041016,143.223999 
	C1181.695801,142.976501 1198.356201,143.091934 1215.014893,143.141617 
	C1215.473755,143.142975 1215.931519,143.463318 1217.235962,143.951797 
	C1203.122437,206.192032 1188.995239,268.492157 1174.704834,331.511810 
	C1177.311157,331.729980 1179.354004,332.047791 1181.397217,332.050018 
	C1211.718384,332.082825 1242.039673,332.071014 1272.360840,332.076721 
	C1279.420288,332.078033 1279.540527,332.116119 1278.081665,338.818420 
	C1274.404419,355.712067 1270.503174,372.557648 1266.932617,389.473358 
	C1266.027588,393.760498 1263.951416,394.941376 1259.727295,394.930908 
	C1210.080811,394.807770 1160.433960,394.865753 1110.787109,394.857361 
	C1109.021851,394.857056 1107.256470,394.664246 1104.791016,394.520325 
	C1113.945557,354.367523 1122.949463,314.875244 1132.020752,274.970428 
z"/>
<path fill="#FEFEFE" opacity="1.000000" stroke="none" 
	d="
M587.066284,190.065567 
	C590.367493,175.385635 593.715088,161.145264 596.763672,146.841141 
	C597.376343,143.966339 598.429565,142.967514 601.308960,142.987183 
	C616.297424,143.089600 631.288696,143.169037 646.275024,142.963852 
	C651.068848,142.898224 651.403931,144.906433 650.509338,148.802582 
	C644.856750,173.421310 639.361816,198.076172 633.770264,222.708984 
	C622.842651,270.848907 611.885071,318.982056 600.941711,367.118408 
	C599.246460,374.575409 597.445618,382.011108 595.918579,389.502533 
	C595.131897,393.361664 593.446289,395.039825 589.195312,394.962585 
	C574.877014,394.702545 560.550598,394.787567 546.228577,394.902008 
	C542.046753,394.935425 540.628845,393.842804 541.677185,389.300903 
	C553.713196,337.156464 565.580322,284.972961 577.472473,232.795334 
	C580.685242,218.698959 583.830933,204.587311 587.066284,190.065567 
z"/>
<path fill="#FDF9F9" opacity="1.000000" stroke="none" 
	d="
M982.961243,488.921570 
	C977.593079,489.729767 975.786255,487.983002 975.972107,482.729401 
	C976.378113,471.249359 976.197327,459.743683 976.041016,448.251434 
	C975.991028,444.576599 976.813538,443.011078 980.999390,442.878601 
	C986.564148,442.702423 990.516724,443.841919 992.945496,449.380219 
	C994.574341,453.094574 997.257874,456.346344 1000.148132,460.866394 
	C1003.521423,455.425812 1006.404480,450.870026 1009.186646,446.253479 
	C1010.861938,443.473694 1020.965332,441.461395 1023.060181,443.776642 
	C1023.808594,444.603729 1023.904297,446.227478 1023.909363,447.489166 
	C1023.958862,459.816223 1023.818115,472.145111 1023.984436,484.470032 
	C1024.032593,488.046326 1022.721069,489.311005 1019.315491,488.959381 
	C1017.832214,488.806213 1016.313721,488.851685 1014.821655,488.956177 
	C1011.951050,489.157196 1011.031311,487.756256 1011.086060,485.056244 
	C1011.193787,479.743347 1011.117737,474.426697 1010.082031,468.599823 
	C1008.001343,471.771912 1005.891602,474.925446 1003.846802,478.120514 
	C1000.874939,482.764221 999.583374,482.777588 996.530945,478.131409 
	C994.446472,474.958557 992.352051,471.792267 990.262024,468.623047 
	C989.809753,468.685333 989.357483,468.747620 988.905212,468.809906 
	C988.905212,473.650665 988.642822,478.509979 988.982910,483.326752 
	C989.289734,487.672333 987.904175,489.663483 982.961243,488.921570 
z"/>
<path fill="#FDFAFB" opacity="1.000000" stroke="none" 
	d="
M348.484009,478.560577 
	C345.739441,474.570312 343.199127,470.879181 340.621735,467.214111 
	C340.486969,467.022461 340.037048,467.052368 339.057159,466.815613 
	C339.057159,472.710358 338.792999,478.462128 339.141998,484.176422 
	C339.413422,488.620300 337.133179,489.191101 333.673737,488.891876 
	C330.297699,488.599854 325.992401,490.279144 326.105011,484.038116 
	C326.324341,471.882141 326.218140,459.718994 326.132141,447.559662 
	C326.110046,444.432343 327.333832,443.480194 330.463379,442.922333 
	C337.879181,441.600372 341.742798,445.421295 344.989685,451.190979 
	C347.580627,455.794952 350.653839,460.127502 353.512970,464.580536 
	C354.051239,464.525299 354.589508,464.470032 355.127777,464.414795 
	C355.127777,461.139893 355.127563,457.865021 355.127869,454.590118 
	C355.128021,453.257507 355.129913,451.924927 355.129974,450.592316 
	C355.130310,442.971436 355.135498,443.172913 362.651703,442.974396 
	C366.675873,442.868103 368.214966,443.961792 368.117645,448.254669 
	C367.849701,460.075409 367.901886,471.908325 368.099640,483.731873 
	C368.162933,487.514923 367.061035,488.500458 363.151489,489.090363 
	C354.560150,490.386749 352.073761,484.251495 348.484009,478.560577 
z"/>
<path fill="#FDF9FA" opacity="1.000000" stroke="none" 
	d="
M858.099243,473.929993 
	C858.111023,476.243134 858.018860,478.082703 858.153259,479.905518 
	C858.840515,489.222900 858.558472,489.303406 849.232361,488.983459 
	C844.319580,488.814880 839.373535,489.923035 834.442322,489.925079 
	C821.765991,489.930267 811.515076,479.583679 811.094299,466.687469 
	C810.693359,454.399963 821.082764,442.855774 833.283569,442.031708 
	C843.025330,441.373718 851.042480,444.574097 854.974670,451.000153 
	C850.336487,453.873779 846.907654,458.903564 839.879211,454.497955 
	C835.536011,451.775574 827.714905,455.718414 825.363281,460.333282 
	C822.559143,465.836243 823.773071,471.250702 828.748352,475.432098 
	C833.415100,479.354218 838.801758,479.213226 844.422241,474.700623 
	C843.611267,474.446747 843.052551,474.076691 842.554932,474.145874 
	C836.842041,474.940308 837.220825,471.262695 837.078552,467.338013 
	C836.905396,462.563629 839.844299,462.909637 842.943787,462.958130 
	C846.107361,463.007599 849.293762,463.201874 852.431458,462.912811 
	C856.710632,462.518585 858.757446,463.918549 858.140259,468.457062 
	C857.917847,470.092529 858.101562,471.783203 858.099243,473.929993 
z"/>
<path fill="#FDFAFB" opacity="1.000000" stroke="none" 
	d="
M1357.829102,483.744110 
	C1358.106567,487.514709 1356.817627,489.248322 1353.259766,488.952606 
	C1351.442139,488.801575 1349.444824,489.359619 1347.819946,488.780457 
	C1346.392456,488.271667 1344.348755,486.643921 1344.326294,485.476807 
	C1344.077881,472.507172 1344.077026,459.529297 1344.324829,446.559662 
	C1344.347534,445.367615 1346.500732,443.260803 1347.737183,443.205566 
	C1354.708496,442.894104 1361.725342,442.733063 1368.680664,443.203705 
	C1374.523560,443.599121 1378.883179,447.021118 1381.432251,452.312073 
	C1384.061523,457.768951 1383.453003,463.189819 1379.454590,467.660614 
	C1377.248901,470.126801 1377.653320,471.668732 1379.215454,474.081116 
	C1382.055908,478.468048 1384.515991,483.101227 1387.828125,488.830841 
	C1382.623291,488.830841 1378.724121,488.994232 1374.855469,488.722534 
	C1373.813965,488.649384 1372.612427,487.428558 1371.923828,486.431183 
	C1370.232788,483.981567 1368.469604,481.491180 1367.341187,478.766357 
	C1365.888794,475.259338 1363.173828,474.114960 1360.217529,475.269867 
	C1358.907471,475.781708 1358.527222,478.847839 1357.884888,480.806915 
	C1357.638184,481.559113 1357.836792,482.457367 1357.829102,483.744110 
M1364.153687,462.966370 
	C1368.009033,462.892761 1369.744263,460.807526 1368.937134,457.162018 
	C1367.896240,452.461212 1363.897827,453.294556 1360.475342,453.115570 
	C1356.927734,452.930054 1357.275146,455.313843 1356.947510,457.717712 
	C1356.210449,463.124695 1359.392456,463.364441 1364.153687,462.966370 
z"/>
<path fill="#FDF9FA" opacity="1.000000" stroke="none" 
	d="
M1475.163940,443.035187 
	C1484.630371,443.039917 1493.624390,443.217224 1502.607178,442.974182 
	C1506.785889,442.861145 1507.191895,445.002350 1507.053833,448.244049 
	C1506.924438,451.280212 1507.500854,454.375183 1502.694336,454.142212 
	C1497.047241,453.868408 1491.368896,453.895996 1485.723877,454.183899 
	C1484.444946,454.249146 1483.248047,455.924988 1482.013306,456.859436 
	C1483.269775,457.957306 1484.461304,459.899902 1485.794312,460.002411 
	C1490.759399,460.384277 1495.783203,460.380463 1500.761475,460.101379 
	C1505.257080,459.849396 1506.006226,462.116577 1505.939087,465.902588 
	C1505.875977,469.468170 1505.648926,472.137543 1500.945190,471.876068 
	C1495.967285,471.599274 1490.943848,471.618042 1485.977417,471.995605 
	C1484.588013,472.101227 1483.329468,473.929718 1482.010986,474.967896 
	C1483.362061,475.956329 1484.666748,477.712311 1486.072510,477.797485 
	C1491.545898,478.129242 1497.061768,478.137787 1502.541504,477.861969 
	C1506.645752,477.655396 1507.247925,479.742340 1507.046875,483.064087 
	C1506.868652,486.006927 1507.729370,489.137665 1502.803101,489.008850 
	C1492.987915,488.752228 1483.159912,488.829163 1473.340454,488.979462 
	C1470.009888,489.030426 1469.028931,487.714600 1469.061401,484.552704 
	C1469.184692,472.567963 1469.307617,460.576843 1469.025391,448.597656 
	C1468.920898,444.161346 1470.326172,442.380798 1475.163940,443.035187 
z"/>
<path fill="#FDF9FA" opacity="1.000000" stroke="none" 
	d="
M1299.476196,454.107300 
	C1298.024780,455.356537 1297.023560,456.587189 1296.022461,457.817841 
	C1297.255249,458.595184 1298.457764,459.980316 1299.725952,460.043335 
	C1304.878662,460.299347 1310.051514,460.147766 1315.216919,460.150391 
	C1317.742798,460.151672 1320.573608,460.581024 1319.505005,463.839020 
	C1318.578613,466.663391 1321.565796,472.065247 1314.970459,471.855591 
	C1310.143066,471.702087 1305.307007,471.795807 1300.474976,471.820007 
	C1298.324219,471.830780 1295.437866,471.587585 1296.197510,474.831299 
	C1296.503662,476.138672 1299.075928,477.658325 1300.710327,477.775177 
	C1306.015869,478.154572 1311.376465,478.153656 1316.692993,477.871277 
	C1321.555420,477.612976 1320.882812,480.736359 1321.003906,483.757202 
	C1321.134521,487.018524 1320.689087,489.112793 1316.521362,489.009521 
	C1306.696533,488.766083 1296.860474,488.853912 1287.031128,488.981506 
	C1283.952148,489.021484 1282.980225,487.819305 1283.005615,484.847626 
	C1283.112671,472.351593 1283.134277,459.853302 1283.003662,447.357788 
	C1282.969727,444.112366 1284.080933,442.947510 1287.336060,442.994629 
	C1297.164917,443.136841 1307.001343,443.210632 1316.826416,442.971466 
	C1321.319214,442.862091 1321.034058,445.562897 1320.988647,448.495148 
	C1320.944946,451.327942 1321.501099,454.306366 1316.919800,454.109497 
	C1311.265625,453.866577 1305.591797,454.075195 1299.476196,454.107300 
z"/>
<path fill="#FDFAFB" opacity="1.000000" stroke="none" 
	d="
M622.042542,488.910828 
	C610.513733,488.790802 612.121765,490.358765 612.037292,479.385925 
	C611.956543,468.886902 612.151062,458.384277 611.950745,447.888489 
	C611.880432,444.204193 613.037048,442.883057 616.782532,442.964783 
	C626.277832,443.171844 635.786926,443.253693 645.277222,442.958008 
	C649.811157,442.816803 649.983276,445.196930 649.978271,448.551025 
	C649.973267,451.892975 649.825012,454.419983 645.283020,454.149048 
	C639.803162,453.822174 634.274780,453.880890 628.797791,454.238251 
	C627.442444,454.326691 626.204407,456.212982 624.912415,457.272858 
	C626.154175,458.228333 627.341736,459.911102 628.647400,460.008301 
	C633.288879,460.353699 637.992981,460.447357 642.630798,460.087463 
	C647.257751,459.728455 648.284912,461.695618 648.161804,465.901978 
	C648.049500,469.739655 647.824951,472.345612 642.849121,471.897797 
	C638.221069,471.481232 633.504272,471.589722 628.870178,471.982117 
	C627.481445,472.099731 626.239075,473.946289 624.929626,475.000732 
	C626.300415,475.974152 627.626831,477.704407 629.049805,477.787750 
	C634.697266,478.118683 640.379089,478.071014 646.040100,477.899628 
	C650.720947,477.757874 649.820862,480.984863 649.902588,483.706451 
	C649.984924,486.451935 650.248779,489.075256 646.032043,488.965820 
	C638.204285,488.762695 630.367371,488.909485 622.042542,488.910828 
z"/>
<path fill="#FDFAFB" opacity="1.000000" stroke="none" 
	d="
M1086.061523,485.973145 
	C1084.699585,487.246490 1083.370850,488.782654 1082.009521,488.812195 
	C1072.350586,489.021820 1062.684326,488.855286 1053.022095,488.963074 
	C1050.049438,488.996246 1048.859985,487.950775 1048.884766,484.901398 
	C1048.987305,472.239746 1048.969971,459.576538 1048.899170,446.914459 
	C1048.883911,444.185150 1049.859375,442.998627 1052.681152,443.022888 
	C1062.677124,443.108765 1072.677368,442.941315 1082.667358,443.201172 
	C1083.990112,443.235626 1086.531738,445.767456 1086.354980,446.151337 
	C1085.126709,448.819855 1088.543945,454.043304 1082.337280,454.054443 
	C1076.672607,454.064636 1070.997681,453.897980 1065.350464,454.218781 
	C1063.879395,454.302368 1061.565796,455.671661 1061.252563,456.871552 
	C1060.443359,459.971832 1062.978516,460.174530 1065.302246,460.164581 
	C1070.300415,460.143127 1075.307007,460.335297 1080.295044,460.108643 
	C1085.703979,459.862823 1084.792236,463.539215 1085.006714,466.833496 
	C1085.231567,470.287933 1084.400635,472.142487 1080.396484,471.917175 
	C1075.247681,471.627411 1070.063721,471.695374 1064.910278,471.935730 
	C1063.623047,471.995758 1062.394165,473.307190 1061.138550,474.043457 
	C1062.230225,475.171295 1063.227661,477.144073 1064.430298,477.278290 
	C1069.205811,477.811371 1074.044189,477.829987 1078.861572,477.928864 
	C1088.140503,478.119385 1086.846680,477.208740 1086.061523,485.973145 
z"/>
<path fill="#FDF9F9" opacity="1.000000" stroke="none" 
	d="
M1430.842285,460.157898 
	C1434.242798,461.205017 1437.354248,461.945557 1440.214233,463.241516 
	C1445.333130,465.561096 1448.361328,469.375610 1447.943115,475.394836 
	C1447.523071,481.437500 1444.907349,485.925690 1439.096558,488.035675 
	C1429.223999,491.620575 1419.425415,490.439178 1409.849609,486.855896 
	C1408.930908,486.512146 1407.956177,483.940308 1408.337769,482.882751 
	C1410.888794,475.812164 1412.285278,475.533203 1419.422119,477.724640 
	C1422.970947,478.814392 1426.910522,478.777496 1430.684204,478.892639 
	C1431.687866,478.923248 1433.612427,477.574615 1433.571899,476.961060 
	C1433.490356,475.725464 1432.621826,473.944489 1431.590576,473.487000 
	C1429.038208,472.354523 1426.217896,471.815460 1423.491577,471.089722 
	C1422.210693,470.748810 1420.877319,470.600830 1419.603271,470.239838 
	C1410.536987,467.671082 1406.782227,463.493286 1407.148193,456.442139 
	C1407.505127,449.565094 1412.581055,443.864838 1420.679565,442.523254 
	C1428.087402,441.296082 1435.591797,441.457245 1442.734131,444.522858 
	C1445.720215,445.804596 1446.254028,447.355164 1444.368530,450.263092 
	C1440.450684,456.305481 1440.660400,456.210602 1433.824341,454.015289 
	C1431.058472,453.127075 1427.947754,452.976624 1425.017456,453.090820 
	C1423.721924,453.141296 1422.484375,454.684662 1421.220459,455.550262 
	C1422.349976,456.617249 1423.312744,458.048523 1424.650391,458.661407 
	C1426.427246,459.475586 1428.496338,459.651489 1430.842285,460.157898 
z"/>
<path fill="#FDF9F9" opacity="1.000000" stroke="none" 
	d="
M108.195229,468.989410 
	C102.452545,466.489258 99.967461,462.066071 100.202103,456.504028 
	C100.452644,450.565063 103.493858,446.038910 109.314651,443.969299 
	C119.408302,440.380463 129.128098,441.246155 138.782761,446.575745 
	C138.057251,447.937866 137.544815,448.941345 136.995743,449.924316 
	C133.279678,456.576813 133.337433,456.392029 126.355362,454.096283 
	C123.595100,453.188721 120.498558,453.054352 117.557953,453.070831 
	C116.422623,453.077179 115.295105,454.478546 114.164024,455.244354 
	C115.029358,456.322754 115.690987,457.993500 116.796432,458.373627 
	C120.877296,459.776917 125.096619,460.785004 129.279160,461.883484 
	C136.977493,463.905334 140.809921,468.140045 140.893341,474.792786 
	C140.987289,482.285889 137.342514,486.910706 129.364212,488.879181 
	C120.382896,491.095154 111.554428,490.353760 102.900299,487.031433 
	C100.104637,485.958221 99.964310,484.750427 101.353958,482.168213 
	C103.975456,477.297058 106.785156,474.767609 112.625679,477.845459 
	C115.096375,479.147491 118.482796,479.108826 121.422142,478.979309 
	C123.257538,478.898376 125.035309,477.509949 126.838951,476.708252 
	C125.255173,475.282806 123.866150,473.477356 122.033272,472.537903 
	C120.171066,471.583466 117.864021,471.512268 115.764793,471.000854 
	C113.350151,470.412598 110.949776,469.765747 108.195229,468.989410 
z"/>
<path fill="#FDFAFB" opacity="1.000000" stroke="none" 
	d="
M182.028687,489.996399 
	C169.411362,489.011169 162.936325,482.051880 162.911285,469.876984 
	C162.896210,462.547546 163.077789,455.213531 162.865677,447.890442 
	C162.759979,444.240997 163.867920,442.545258 167.679825,443.049072 
	C168.988220,443.222015 170.351685,443.161438 171.671677,443.027222 
	C174.924179,442.696564 176.096756,444.075958 176.026321,447.330811 
	C175.867767,454.656708 175.939392,461.989227 176.015594,469.318024 
	C176.064682,474.039856 178.786591,477.063507 182.666382,476.947418 
	C186.386841,476.836151 188.912979,473.941803 188.959076,469.466644 
	C189.032837,462.304443 189.136871,455.136383 188.921448,447.980011 
	C188.813354,444.389343 189.818359,442.588348 193.670837,443.016449 
	C195.316635,443.199371 197.154755,442.635254 198.618759,443.180481 
	C199.953094,443.677399 201.842056,445.192444 201.869186,446.298370 
	C202.101837,455.785828 202.418686,465.311401 201.809082,474.767487 
	C201.248001,483.471405 193.189407,489.354767 182.028687,489.996399 
z"/>
<path fill="#FDF9FA" opacity="1.000000" stroke="none" 
	d="
M717.155518,464.079285 
	C719.438232,457.961823 721.817749,452.287354 723.703430,446.453278 
	C725.328186,441.426422 729.277100,443.502228 732.434570,443.046600 
	C735.373169,442.622498 736.793518,443.901337 737.852417,446.755768 
	C742.302429,458.751587 747.075500,470.627289 751.678040,482.567108 
	C752.312012,484.211548 752.653076,485.968872 753.479858,488.926361 
	C749.839417,488.926361 746.927795,488.658447 744.086975,488.992279 
	C740.299255,489.437378 739.678284,485.024384 738.064453,484.639313 
	C733.427979,483.533112 728.376282,484.166870 723.487793,484.116882 
	C720.320374,491.936646 713.938660,488.099731 707.425720,488.954346 
	C710.903137,480.090576 713.970520,472.271790 717.155518,464.079285 
M733.525574,471.161621 
	C732.905701,468.061707 732.285828,464.961792 731.665955,461.861877 
	C731.210388,461.873840 730.754822,461.885834 730.299194,461.897827 
	C729.325500,465.008972 728.351746,468.120087 727.162964,471.918396 
	C729.698669,471.790863 731.304871,471.710083 733.525574,471.161621 
z"/>
<path fill="#FDF9FA" opacity="1.000000" stroke="none" 
	d="
M418.493591,446.338867 
	C423.869324,460.444855 429.106079,474.179993 434.702698,488.858978 
	C429.970551,488.858978 426.512451,488.988464 423.075714,488.774933 
	C422.125793,488.715912 420.949738,487.835205 420.370300,486.992584 
	C416.355072,481.154205 406.529785,481.089539 402.675476,486.816742 
	C401.984436,487.843597 400.373383,488.692108 399.112457,488.807526 
	C396.010803,489.091370 392.865631,488.900421 388.962250,488.900421 
	C389.526733,486.674927 389.763672,485.090729 390.324677,483.631073 
	C395.097504,471.212891 399.829254,458.776398 404.871887,446.467712 
	C405.490387,444.957947 407.884705,443.216980 409.424713,443.246002 
	C412.490692,443.303864 416.700470,440.958984 418.493591,446.338867 
M411.578796,471.902954 
	C415.365204,470.875549 415.240601,467.480286 410.971039,461.864838 
	C410.221649,464.440552 409.319000,466.751160 408.981201,469.141632 
	C408.865845,469.957977 410.169128,470.974762 411.578796,471.902954 
z"/>
<path fill="#FDF9FA" opacity="1.000000" stroke="none" 
	d="
M1166.309082,473.283447 
	C1169.932983,463.937714 1173.301636,454.907104 1176.961304,445.996063 
	C1177.485229,444.720276 1179.458862,443.164490 1180.687500,443.225739 
	C1183.773071,443.379608 1188.838989,443.515350 1189.557739,445.186523 
	C1195.571533,459.168121 1200.783203,473.494690 1206.644775,488.781647 
	C1200.199951,488.231506 1193.967773,492.003296 1190.816895,484.110474 
	C1185.915771,484.072754 1181.014771,484.035034 1176.113647,483.997314 
	C1174.348755,490.828430 1168.810669,488.647644 1164.321655,488.879211 
	C1163.395874,488.926941 1162.447266,488.532898 1160.720703,488.182495 
	C1162.609863,483.118439 1164.378540,478.377625 1166.309082,473.283447 
M1186.368042,471.224670 
	C1185.662598,467.863983 1184.957153,464.503265 1184.251709,461.142578 
	C1183.868164,461.181183 1183.484741,461.219818 1183.101196,461.258453 
	C1182.107788,464.508362 1181.114258,467.758270 1179.919189,471.667755 
	C1182.286133,471.667755 1184.019531,471.667755 1186.368042,471.224670 
z"/>
<path fill="#FDF9FA" opacity="1.000000" stroke="none" 
	d="
M582.219971,443.083252 
	C585.458130,443.080139 588.247131,443.080139 591.846313,443.080139 
	C588.630371,451.535217 585.711426,459.237000 582.771362,466.930695 
	C580.397400,473.143005 577.862854,479.298431 575.672668,485.574371 
	C574.719299,488.306549 573.093384,489.289612 570.456055,488.922974 
	C567.399841,488.498138 563.446716,490.546814 561.729126,486.188568 
	C556.371704,472.594421 551.103943,458.964935 545.825562,445.339752 
	C545.661072,444.915131 545.762695,444.387451 545.704041,443.133301 
	C549.726196,443.133301 553.666504,442.836060 557.514099,443.302917 
	C558.772278,443.455566 560.209412,445.411957 560.842590,446.859375 
	C563.350342,452.591309 565.571899,458.448456 568.439758,465.607941 
	C571.391602,458.409485 574.009521,452.575409 576.150574,446.571289 
	C577.215271,443.585724 578.980530,442.769684 582.219971,443.083252 
z"/>
<path fill="#FDF9FA" opacity="1.000000" stroke="none" 
	d="
M878.818176,473.807495 
	C875.856262,460.995972 879.838440,450.533478 889.365173,445.353851 
	C899.580017,439.800110 911.629272,441.038208 919.161682,448.775116 
	C914.867798,452.284302 912.088379,457.467072 904.586792,455.136108 
	C898.682007,453.301270 894.167542,456.338104 891.983887,461.363007 
	C889.897766,466.163483 891.111816,471.124390 895.302979,474.926270 
	C898.777161,478.077667 904.932861,478.104340 909.637817,474.988251 
	C912.408081,473.153503 917.796875,475.164185 920.655212,479.322083 
	C923.154663,482.957916 919.323730,484.125824 917.574829,485.357086 
	C903.329041,495.386993 883.463684,488.570740 878.818176,473.807495 
z"/>
<path fill="#FDF9FA" opacity="1.000000" stroke="none" 
	d="
M1224.079102,463.951080 
	C1221.849121,458.342651 1219.787354,453.082245 1217.699585,447.832123 
	C1216.509521,444.839325 1216.917236,442.925964 1220.707886,443.072632 
	C1222.370972,443.136993 1224.062866,443.260895 1225.699707,443.042603 
	C1229.729858,442.505310 1231.526978,444.131927 1232.660522,448.117920 
	C1234.234619,453.653198 1236.789551,458.909515 1239.424194,465.543030 
	C1242.021118,459.422302 1244.607178,454.615356 1246.084717,449.488861 
	C1247.615234,444.179413 1250.461060,442.615204 1255.764282,442.973755 
	C1262.781128,443.448151 1262.981323,443.590027 1260.384399,450.073242 
	C1255.932739,461.186554 1251.486450,472.317871 1247.598511,483.634247 
	C1245.787109,488.907013 1242.304443,488.900543 1237.926270,489.049347 
	C1233.297485,489.206696 1232.506592,486.028320 1231.320435,482.952148 
	C1228.928223,476.747803 1226.594238,470.520966 1224.079102,463.951080 
z"/>
<path fill="#FDF9F9" opacity="1.000000" stroke="none" 
	d="
M475.805847,462.093719 
	C475.803467,469.748596 475.682861,476.917511 475.849731,484.079712 
	C475.936096,487.786011 474.457825,489.296844 470.814514,488.953339 
	C469.327667,488.813141 467.804382,488.802246 466.319519,488.950836 
	C462.942596,489.288849 462.016174,487.661896 462.068878,484.531677 
	C462.206329,476.367920 462.026031,468.198853 462.158173,460.034943 
	C462.214935,456.527435 461.075897,454.924469 457.305450,454.825897 
	C447.917358,454.580414 447.497864,453.838867 449.654205,443.037750 
	C455.246429,443.037750 461.026215,443.037231 466.806000,443.037903 
	C472.972229,443.038635 479.141937,443.167816 485.303467,442.998505 
	C489.630463,442.879608 489.156158,445.803772 488.974396,448.408539 
	C488.789764,451.054382 490.464752,454.960449 485.315887,454.874969 
	C484.316345,454.858368 483.316162,454.880951 482.316254,454.886780 
	C475.887817,454.924255 475.887817,454.924377 475.805847,462.093719 
z"/>
<path fill="#FDF9F9" opacity="1.000000" stroke="none" 
	d="
M1116.083374,443.028564 
	C1125.709595,443.033844 1134.854126,443.214386 1143.987305,442.971161 
	C1148.721924,442.845093 1148.874634,445.507843 1148.911499,449.012451 
	C1148.949707,452.637207 1148.491821,454.982727 1143.881836,454.974854 
	C1134.878174,454.959473 1134.884277,455.186096 1134.896729,464.062927 
	C1134.906006,470.710022 1134.649414,477.369568 1134.984375,483.999664 
	C1135.194946,488.166382 1133.495361,489.392120 1129.765259,488.938995 
	C1129.601562,488.919128 1129.433228,488.934998 1129.267090,488.935547 
	C1121.373901,488.960785 1121.047241,488.278229 1121.619141,480.368103 
	C1122.109375,473.590424 1121.870972,466.756378 1121.857422,459.947449 
	C1121.850342,456.331787 1120.210693,454.321564 1116.281250,454.886810 
	C1115.467163,455.003876 1114.592163,455.044617 1113.796997,454.875916 
	C1111.967651,454.487732 1108.770996,454.228912 1108.609619,453.421570 
	C1108.010010,450.423767 1107.763062,446.989288 1108.767090,444.220428 
	C1109.158936,443.139648 1113.211670,443.386200 1116.083374,443.028564 
z"/>
<path fill="#FDFAFB" opacity="1.000000" stroke="none" 
	d="
M782.714844,443.040833 
	C787.177795,442.572327 787.431274,445.432892 787.421326,448.153137 
	C787.377991,459.967407 787.056091,471.782745 787.170593,483.594421 
	C787.210388,487.697693 785.964355,489.131897 781.781311,489.017059 
	C774.103271,488.806335 774.110535,489.028076 774.125122,481.493988 
	C774.144714,471.336761 774.114380,461.179382 774.155701,451.022278 
	C774.189819,442.634766 772.940002,443.045898 782.714844,443.040833 
z"/>
<path fill="#FDF9F9" opacity="1.000000" stroke="none" 
	d="
M524.041077,471.998138 
	C524.040955,476.651794 523.916260,480.810791 524.081787,484.958221 
	C524.204712,488.040100 522.893799,489.176910 519.944214,488.949280 
	C518.292175,488.821777 516.616028,488.824432 514.962524,488.938843 
	C512.190369,489.130676 511.078430,487.929901 511.092712,485.164734 
	C511.158844,472.370667 511.171204,459.575836 511.104218,446.781799 
	C511.089447,443.964264 512.273438,442.840515 514.999146,443.040833 
	C516.155945,443.125885 517.342224,443.183655 518.484375,443.028320 
	C522.810608,442.440033 524.357361,444.092102 524.148560,448.572571 
	C523.793091,456.199677 524.044556,463.855042 524.041077,471.998138 
z"/>
<path fill="#FDF9F9" opacity="1.000000" stroke="none" 
	d="
M238.295776,443.757812 
	C238.738312,458.046936 238.925461,472.015869 238.852798,485.983398 
	C238.847687,486.964874 236.944641,487.961334 235.871155,488.889557 
	C235.677994,489.056610 235.224884,488.915253 234.892410,488.930206 
	C226.142090,489.323303 226.126999,489.323639 226.114014,480.636810 
	C226.098083,469.981873 226.292694,459.322266 226.021317,448.674225 
	C225.912659,444.411285 226.941422,442.330994 231.538696,443.036224 
	C233.655716,443.360992 235.829575,443.315125 238.295776,443.757812 
z"/>
<path fill="#FDF9F9" opacity="1.000000" stroke="none" 
	d="
M276.853882,466.764618 
	C282.981323,466.365540 288.775665,466.288849 294.567108,466.115082 
	C297.752991,466.019470 297.894623,468.064575 297.876129,470.401031 
	C297.858368,472.650299 297.990082,474.848053 294.718414,474.807678 
	C289.576141,474.744171 284.400604,475.144989 279.298096,474.689270 
	C273.705444,474.189789 276.584595,469.933319 276.853882,466.764618 
z"/>
<path fill="#FCAEBB" opacity="1.000000" stroke="none" 
	d="
M791.993164,388.990845 
	C791.987732,388.983398 792.196167,388.635834 792.196167,388.635834 
	C792.196167,388.635834 792.204590,388.912537 792.108704,388.960449 
	C792.012817,389.008331 791.998596,388.998322 791.993164,388.990845 
z"/>
<path fill="#FCAEBB" opacity="1.000000" stroke="none" 
	d="
M1363.713135,462.969299 
	C1359.392456,463.364441 1356.210449,463.124695 1356.947510,457.717712 
	C1357.275146,455.313843 1356.927734,452.930054 1360.475342,453.115570 
	C1363.897827,453.294556 1367.896240,452.461212 1368.937134,457.162018 
	C1369.744263,460.807526 1368.009033,462.892761 1363.713135,462.969299 
z"/>
<path fill="#FCAEBB" opacity="1.000000" stroke="none" 
	d="
M733.218262,471.395447 
	C731.304871,471.710083 729.698669,471.790863 727.162964,471.918396 
	C728.351746,468.120087 729.325500,465.008972 730.299194,461.897827 
	C730.754822,461.885834 731.210388,461.873840 731.665955,461.861877 
	C732.285828,464.961792 732.905701,468.061707 733.218262,471.395447 
z"/>
<path fill="#FCAEBB" opacity="1.000000" stroke="none" 
	d="
M411.201538,471.901459 
	C410.169128,470.974762 408.865845,469.957977 408.981201,469.141632 
	C409.319000,466.751160 410.221649,464.440552 410.971039,461.864838 
	C415.240601,467.480286 415.365204,470.875549 411.201538,471.901459 
z"/>
<path fill="#FCAEBB" opacity="1.000000" stroke="none" 
	d="
M1186.060425,471.446228 
	C1184.019531,471.667755 1182.286133,471.667755 1179.919189,471.667755 
	C1181.114258,467.758270 1182.107788,464.508362 1183.101196,461.258453 
	C1183.484741,461.219818 1183.868164,461.181183 1184.251709,461.142578 
	C1184.957153,464.503265 1185.662598,467.863983 1186.060425,471.446228 
z"/>
</svg>