<svg id="图层_1" data-name="图层 1" xmlns="http://www.w3.org/2000/svg" viewBox="0 0 1756.24 624.04"><path d="M95.39,295.39V446.9H2.81V12.31H152.35q162.17,0,162.16,137.47,0,66.78-49,107T143.09,295.39Zm0-211.26V224.41h40.12q81.65,0,81.65-71,0-69.3-80.81-69.3Z" transform="translate(-2.81 -5.01)"/><path d="M480.79,12.31V446.9H388.21V12.31Z" transform="translate(-2.81 -5.01)"/><path d="M975.62,446.9H880.78l-184-281.13Q682.44,143.89,676,130.42h-1.4q2.52,22.46,2.53,69.3V446.9H589.28V12.31h101L867.6,285.57q17.67,27.23,21.6,34.51h1.4q-2.8-15.7-2.8-60V12.31h87.82Z" transform="translate(-2.81 -5.01)"/><path d="M1439,446.9H1321.74L1190.15,257q-5-7.3-11.5-22.73h-1.4V446.9h-92.59V12.31h92.59V217.68h1.4A201.38,201.38,0,0,1,1191,194.39L1315.57,12.31h110.54L1270.68,219.64Z" transform="translate(-2.81 -5.01)"/><path d="M1484.93,352.35q43.48,32.55,101.57,32.54,36.75,0,58.35-16.27t21.61-46.29q0-30.87-25.67-47.14t-72-16.27H1530.1V189.06h35.64q87.52,0,87.53-58.92,0-55.54-67-55.55-43.77,0-85,28.62V28.3Q1546.09,5,1607,5q61.71,0,100.16,28.48t38.44,79q0,85.29-86.42,107.17V221q45.45,5.06,72.67,33.25t27.21,68.6q0,62-45.31,96.79T1593,454.47q-67.07,0-108-22.16Z" transform="translate(-2.81 -5.01)"/><path d="M68.39,590.87a49.75,49.75,0,0,1-1,9.54,41.94,41.94,0,0,1-3.48,10.29,33.6,33.6,0,0,1-6.51,9.1,25.85,25.85,0,0,1-10.14,6.14c-1,.4-2.17.82-3.55,1.26a11.55,11.55,0,0,1-3,.67H6.37V508.58H7.85V624.17H40.71c.49-.1,1.68-.4,3.55-.89a24.76,24.76,0,0,0,5.33-2.07,35.86,35.86,0,0,0,9.32-7.3,30.76,30.76,0,0,0,5.18-8,30.44,30.44,0,0,0,2.3-8.41,72.3,72.3,0,0,0,.52-8.56c0-2.75-.06-4.94-.15-6.57a29.36,29.36,0,0,0-.59-4.43A37.85,37.85,0,0,0,65.06,574q-.68-1.92-1.71-5a40.75,40.75,0,0,1,3.78,10.58A54.46,54.46,0,0,1,68.39,590.87Zm-5.18-1.93v3.26a32.87,32.87,0,0,1-.23,3.63,25.25,25.25,0,0,1-1,4.43,53.86,53.86,0,0,1-2.22,5.85,19.74,19.74,0,0,1-3.55,5.26A34.31,34.31,0,0,1,51,616a28.57,28.57,0,0,1-5.78,3.25,13.68,13.68,0,0,1-5.1,1.19H12.29V512.72a48.1,48.1,0,0,1,5.26-.74c2.12-.19,4.22-.37,6.29-.52s3.89-.24,5.47-.29l2.81-.08q13,0,19.69,7t6.66,19.54a29,29,0,0,1-2.37,11.17q-2.37,5.7-9.32,10.58v.15c0,.2.15.35.44.44a23.69,23.69,0,0,1,13.4,12.88A28.35,28.35,0,0,1,62.76,581,74.79,74.79,0,0,1,63.21,588.94Zm-15.4-50a17.52,17.52,0,0,0-1.62-8.21,9.83,9.83,0,0,0-4.81-4.45,24.45,24.45,0,0,0-7.78-1.77,97.17,97.17,0,0,0-10.35-.22V555.2H36a8.55,8.55,0,0,0,3.26-1.11c1.48-.74,2.76-1.46,3.85-2.15a6.41,6.41,0,0,0,1.63-1.62A13.35,13.35,0,0,0,46,548.17a16.08,16.08,0,0,0,.82-2.07c.19-.64.34-1.16.44-1.56a18.65,18.65,0,0,0,.45-3C47.76,540.4,47.81,539.51,47.81,538.92ZM52.1,586.8c0-1-.07-2.31-.22-4a26.19,26.19,0,0,0-1-5.24,18.43,18.43,0,0,0-2.52-5.16,11,11,0,0,0-4.81-3.76,24.93,24.93,0,0,0-2.88-1.18,8.88,8.88,0,0,0-2.59-.59H23.25v41.44a2.26,2.26,0,0,1,1.7-.81,9.75,9.75,0,0,1,2.37.15l2.59.44a13.52,13.52,0,0,0,2.21.22q10.22,0,15.1-5.38T52.1,586.8Zm-8.43-48c0,.8,0,1.74-.07,2.83a12.45,12.45,0,0,1-.67,3.35,9.58,9.58,0,0,1-2,3.28,9.21,9.21,0,0,1-4.07,2.46,4.89,4.89,0,0,0,2.59-1.63,7.67,7.67,0,0,0,1.41-2.74,17.82,17.82,0,0,0,.59-3.1c.1-1,.15-1.86.15-2.45a15.33,15.33,0,0,0-.3-2.66,11.72,11.72,0,0,0-1-3.11,7.52,7.52,0,0,0-2.08-2.52,5.17,5.17,0,0,0-3.25-1H27.83v20.13l-.29-23.83h9a3.7,3.7,0,0,1,1.77.6,13.21,13.21,0,0,1,2,1.41,17.86,17.86,0,0,1,1.7,1.64,4.27,4.27,0,0,1,.89,1.27,6.55,6.55,0,0,1,.74,3.2Zm4.74,48a33,33,0,0,1-.37,4.38,22.76,22.76,0,0,1-1.34,5.06,14.35,14.35,0,0,1-2.59,4.31A7.63,7.63,0,0,1,40,603a7,7,0,0,0,3-2.59,14.18,14.18,0,0,0,1.71-3.7,23.53,23.53,0,0,0,.81-4,33.88,33.88,0,0,0,.22-3.78c0-.89,0-1.67.08-2.36a11.2,11.2,0,0,0-.08-2.15,13.87,13.87,0,0,0-.66-2.59,32.2,32.2,0,0,0-1.56-3.55,4.08,4.08,0,0,0-1.4-1.33,16.3,16.3,0,0,0-2.45-1.34c-.88-.39-1.75-.74-2.59-1a6.38,6.38,0,0,0-1.7-.45H27.83v30.05l-.29-33.75H37a7.16,7.16,0,0,1,1.41.23,17.59,17.59,0,0,1,2,.59,19.4,19.4,0,0,1,2.08.89,6.27,6.27,0,0,1,1.62,1.12A12.43,12.43,0,0,1,47.74,580,40.11,40.11,0,0,1,48.41,586.8Zm14.8-47.29A38,38,0,0,1,61.8,550q-1.41,4.95-6.29,10.58l-1.78-1.78a28.65,28.65,0,0,0,4.52-5.7,27.57,27.57,0,0,0,2.59-5.7A25.16,25.16,0,0,0,62,542c.15-1.68.22-3.16.22-4.44a46.85,46.85,0,0,0-1-9.62,26.21,26.21,0,0,0-3.48-8.59q1.92,3.55,3,6.15a36.05,36.05,0,0,1,1.71,4.8,20,20,0,0,1,.66,4.37C63.18,536.13,63.21,537.74,63.21,539.51Z" transform="translate(-2.81 -5.01)"/><path d="M154.82,627.13H97.69V508.28h2.37V623.43h54.46v-21Zm-4-7.4H103.9V512h10.51v94h36.41ZM119.3,602.26h-.89v-94h.89Z" transform="translate(-2.81 -5.01)"/><path d="M264.78,627H241.54q-.73-2.22-1.55-5.33t-1.63-6.22c-.54-2.07-1.11-4.06-1.7-6a23,23,0,0,0-1.93-4.66h-20a20.69,20.69,0,0,0-1.85,4.51q-.81,2.75-1.62,5.85t-1.48,6.29q-.68,3.18-1.26,5.55H184.86L218.6,507.69h1.93L187.82,623.58h19.39q1.62-5.4,3.1-11T213,601.08h24.71c.3,1.5.69,3.27,1.19,5.32s1,4.15,1.63,6.3,1.18,4.2,1.77,6.15,1.13,3.57,1.63,4.87H263.3L230.15,507.54ZM258,619.73H246.28q-1-4.89-2.59-11a83.27,83.27,0,0,0-3.63-11.17H210.61q-1.63,4.88-3.18,11.1T205,619.73H193.15l30.78-108.49h2.81ZM237.25,586l-9.92-43.06h-3.4L213.42,586Zm-4.74-3.7h-3l-5-19.53q-1.19,4.74-2.37,10a67.37,67.37,0,0,1-2.66,9.1l-1.33.44,7.4-30Z" transform="translate(-2.81 -5.01)"/><path d="M360.53,611.14a34.54,34.54,0,0,1-6.44,8,29.23,29.23,0,0,1-14.8,7.3,43.76,43.76,0,0,1-7.77.7A31.92,31.92,0,0,1,317,624a33.3,33.3,0,0,1-10.44-8.14,41.52,41.52,0,0,1-6.88-11.4,82.69,82.69,0,0,1-4.07-12.87,92.15,92.15,0,0,1-2-12.66c-.34-4.09-.52-7.62-.52-10.58a111.59,111.59,0,0,1,1-13.91,75.94,75.94,0,0,1,3.62-15.39,63.24,63.24,0,0,1,7.55-14.88,46.6,46.6,0,0,1,12.88-12.5,47.82,47.82,0,0,0-11.7,12,56.23,56.23,0,0,0-6.8,13.89,72.3,72.3,0,0,0-3.18,14.64,129,129,0,0,0-.82,14.33q0,4.44.44,10.35a86.42,86.42,0,0,0,1.85,12.19,84.59,84.59,0,0,0,3.85,12.49,39,39,0,0,0,6.51,11,32.31,32.31,0,0,0,9.92,7.84,30.06,30.06,0,0,0,14,3,42.52,42.52,0,0,0,6.07-.52,31.52,31.52,0,0,0,7.32-2.07,30.54,30.54,0,0,0,7.33-4.37,23.29,23.29,0,0,0,6.06-7.55l-8-19.24a23.87,23.87,0,0,0-2,2.44q-1.26,1.71-2.82,3.63a31.2,31.2,0,0,1-3.33,3.55,7.08,7.08,0,0,1-3.7,1.93,12.35,12.35,0,0,0,3.55-2.52,22.42,22.42,0,0,0,3-3.63c.89-1.33,1.73-2.68,2.52-4.07s1.58-2.66,2.37-3.84Zm-5.62-2.36a4.06,4.06,0,0,1-1.48,2.36,38.21,38.21,0,0,1-3.48,3,39.49,39.49,0,0,1-4,2.74,14.31,14.31,0,0,1-3,1.47c-.79.2-1.73.4-2.81.6s-2.17.37-3.26.51-2.07.28-3,.38-1.48.14-1.77.14a25.65,25.65,0,0,1-12.88-3,30.45,30.45,0,0,1-9-7.77,38.32,38.32,0,0,1-5.84-10.73,83.81,83.81,0,0,1-3.33-12,91.9,91.9,0,0,1-1.56-11.32c-.24-3.55-.37-6.51-.37-8.88q0-3.25.52-8.66a83.58,83.58,0,0,1,2-11.54,92.35,92.35,0,0,1,3.92-12.36,47.65,47.65,0,0,1,6.22-11.25,31,31,0,0,1,9.17-8.21,24.2,24.2,0,0,1,12.51-3.19,28.82,28.82,0,0,1,4.81.52A50.48,50.48,0,0,1,344,513a29.21,29.21,0,0,1,5.25,2.15,11.21,11.21,0,0,1,3.56,2.73,123.13,123.13,0,0,0-4.3,11.55,8.76,8.76,0,0,0-2.58-1.93,21.26,21.26,0,0,0-3.71-1.48,28.53,28.53,0,0,0-4-.88,24.6,24.6,0,0,0-3.63-.3,17.26,17.26,0,0,0-9.54,2.52,24.51,24.51,0,0,0-6.74,6.43,33.55,33.55,0,0,0-4.44,8.73A71.61,71.61,0,0,0,311.4,552a75.5,75.5,0,0,0-1.19,8.65c-.2,2.67-.29,4.74-.29,6.22,0,2,.09,4.32.29,7a65.57,65.57,0,0,0,1.19,8.44,60.36,60.36,0,0,0,2.44,8.65,27.59,27.59,0,0,0,4.22,7.7,20.7,20.7,0,0,0,6.44,5.48,18.3,18.3,0,0,0,8.95,2.07,22.93,22.93,0,0,0,4.22-.37,16.73,16.73,0,0,0,3.92-1.26,24.73,24.73,0,0,0,4.14-2.51,53.39,53.39,0,0,0,4.89-4.15,18.83,18.83,0,0,0,1,2.89c.5,1.13,1,2.24,1.48,3.33s.91,2,1.26,2.88A5.63,5.63,0,0,1,354.91,608.78Zm3.55-90.28-8.88,23.82c-.3-.29-.62-.59-1-.89a4.4,4.4,0,0,1-.82-.88A12.87,12.87,0,0,0,342,534a17.46,17.46,0,0,0-8.07-1.93,12.39,12.39,0,0,0-7.62,2.37,19.37,19.37,0,0,0-5.25,6,35.72,35.72,0,0,0-3.33,8,63.1,63.1,0,0,0-1.85,8.44,71.26,71.26,0,0,0-.74,7.33q-.15,3.25-.15,4.44v4.07a46.43,46.43,0,0,0,.44,5.92,72.16,72.16,0,0,0,1.34,7.1,40,40,0,0,0,2.66,7.62,35.78,35.78,0,0,1-2.59-5.92,56.91,56.91,0,0,1-1.85-6.8,67.24,67.24,0,0,1-1.11-7.11,63.62,63.62,0,0,1-.37-6.66q0-1.92.3-5.55a64.82,64.82,0,0,1,1.18-7.92,75.85,75.85,0,0,1,2.37-8.73,36.5,36.5,0,0,1,3.77-8.07,20.69,20.69,0,0,1,5.55-5.91,13,13,0,0,1,7.7-2.3,20,20,0,0,1,7.84,1.7,17.1,17.1,0,0,1,7.25,6.59,96.63,96.63,0,0,0,4.07-10q1.71-5,3.63-10c.2.2.47.49.81.89A1.65,1.65,0,0,1,358.46,518.5Zm-37.15,77.1-.74.45-1.18-1.78.74-.44Z" transform="translate(-2.81 -5.01)"/><path d="M461.47,627.13H436.16l-20.57-42.92c-.4.79-.87,1.65-1.41,2.59s-1.08,1.85-1.63,2.74-1,1.7-1.4,2.44a4.06,4.06,0,0,0-.59,1.55v33.6H388.8V507.39h2.07v116h18.65V591a5.6,5.6,0,0,1,.74-1.84c.49-.93,1.11-2,1.85-3.24s1.5-2.51,2.29-3.84,1.53-2.53,2.22-3.62l21.46,45H459l.15-.1c.2,0,.3-.07.3-.2L428,558.46l26.64-51.07h2.52l-27.53,53.28Zm-8-7.4h-13L416.62,570c-.88,1.58-2,3.45-3.25,5.62s-2.47,4.25-3.55,6.22-2.05,3.72-2.89,5.25a10.76,10.76,0,0,0-1.26,2.74v29.9H394.72V511.09h10.8v52.1a12.26,12.26,0,0,1,1.48.59,2.93,2.93,0,0,0,1.34.3l28.26-53h11.55L423.88,558.6ZM433.79,507.39,410.26,554v-5.32Z" transform="translate(-2.81 -5.01)"/><path d="M551.6,545.43a81.48,81.48,0,0,1-1.33,14.5,34.49,34.49,0,0,1-5.4,13.4,30.71,30.71,0,0,1-11.77,9.92q-7.7,3.91-20.57,4.07v40H491.07V508.43h2.07V623.58h18.35V582.73a16.69,16.69,0,0,0,2.82.37c1,0,1.82.07,2.51.07q10.21,0,16.72-3.48a27.87,27.87,0,0,0,10.29-9.1,35.42,35.42,0,0,0,5.25-12.73,70.63,70.63,0,0,0,1.48-14.5c0-1.28-.07-3-.22-5.18s-.37-4.32-.66-6.44a42.1,42.1,0,0,0-1.19-5.77,7.22,7.22,0,0,0-1.77-3.48c.59,1.09,1.28,2.37,2.07,3.85a16.66,16.66,0,0,1,1.63,4.29c.19,1.19.37,2.57.52,4.15s.27,3.1.37,4.58.17,2.79.22,3.93S551.6,545.13,551.6,545.43Zm-4.14-2.37A57.94,57.94,0,0,1,546,556a34.62,34.62,0,0,1-5,11.7,26.59,26.59,0,0,1-9.47,8.5q-5.91,3.27-15,3.26-.74,0-3.33-.3a42,42,0,0,0-4.51-.29l-.44.44v40.56H497.43V511.69c1.09.1,2.35.14,3.78.14s2.86,0,4.29-.07l3.77-.15c1.09-.05,1.78-.07,2.07-.07a73.92,73.92,0,0,1,14.51,1.33,28.55,28.55,0,0,1,11.47,4.88,23.28,23.28,0,0,1,7.47,9.7Q547.46,533.58,547.46,543.06Zm-11.1,2.22a21.52,21.52,0,0,0-1.71-8.95A17.48,17.48,0,0,0,530,530a18.82,18.82,0,0,0-7-3.7,30.13,30.13,0,0,0-8.59-1.18,27.13,27.13,0,0,0-3,.22,11.92,11.92,0,0,1-3.55-.08v39.82a26.17,26.17,0,0,0,4.59.51c1.68,0,2.76.08,3.26.08q9.76,0,15.17-4.81T536.36,545.28Zm-3.7-.29a33.16,33.16,0,0,1-.3,3.77,20.09,20.09,0,0,1-1.33,5,15.52,15.52,0,0,1-2.81,4.59,6.87,6.87,0,0,1-4.59,2.29,4.4,4.4,0,0,0,3.48-1.92,13.6,13.6,0,0,0,1.92-4,19.15,19.15,0,0,0,.81-4.43c.1-1.49.15-2.67.15-3.56a17.33,17.33,0,0,0-.81-5.33,11.38,11.38,0,0,0-2.66-4.43,13.29,13.29,0,0,0-5-3.11,25.17,25.17,0,0,0-7.92-1.34,2.71,2.71,0,0,0-.88,1.93L511.79,562V529h4.73A15.84,15.84,0,0,1,528,533.15Q532.65,537.44,532.66,545Z" transform="translate(-2.81 -5.01)"/><path d="M603.55,627H581.94V505.62h2.5V623.28h17.78V506.21l1.33-.59Zm-5.33-7.55H588.3V509.32h9.92Z" transform="translate(-2.81 -5.01)"/><path d="M701.23,628.31a9.45,9.45,0,0,1-2.89.59c-1.23.1-2.15.15-2.74.15s-1.4,0-2.44-.07-1.95-.08-2.74-.08q-8.73-15.09-16.94-30t-16.65-30v58.46H635.66V508h1.93V623.28h18V561.12l36.11,63.79h8V508.58l1.48-.59Zm-5.18-7.25h-1.92L654.6,551.65a3.67,3.67,0,0,1-1.26.37,12.49,12.49,0,0,1-1.4.07v67.34H641.43V511.69h4l41,72.07V511.69h9.62Zm-42.48-103.9-.74.3L649,510.8l.89-.3Zm2.22,3.7-.74.3-1.78-3,.74-.3Zm2.07,3.7-.74.3-1.77-3,.74-.3Zm2.67,4.74-.74.29-1.78-3,.74-.29Zm2.07,3.7-.74.29-1.78-3,.74-.29Zm4.73,8.43-.74.3-3.84-6.66.74-.29Zm2.67,4.89h-.74l-2.37-3.85.74-.44Zm2.07,3.55-.74.15-1.78-2.81.74-.3Zm2.07,3.7-.74.15-1.77-2.81.74-.45Zm2.07,3.55-.74.3-1.62-3,.74-.3Zm2.67,4.89h-.74l-2.22-3.85.74-.3Zm4,7c-.6-.79-1.29-1.75-2.08-2.88a21.43,21.43,0,0,1-1.92-3.33,2.78,2.78,0,0,1,.52.74,2.72,2.72,0,0,0,.52.74V508.58h3Z" transform="translate(-2.81 -5.01)"/><path d="M805.27,627.13H780l-20.57-42.92c-.4.79-.87,1.65-1.41,2.59s-1.08,1.85-1.63,2.74-1,1.7-1.4,2.44a4.06,4.06,0,0,0-.59,1.55v33.6H732.6V507.39h2.07v116h18.65V591a5.6,5.6,0,0,1,.74-1.84c.49-.93,1.11-2,1.85-3.24s1.5-2.51,2.29-3.84,1.53-2.53,2.22-3.62l21.46,45h20.87l.15-.1c.2,0,.3-.07.3-.2l-31.38-64.67,26.64-51.07H801l-27.53,53.28Zm-8-7.4h-13L760.42,570c-.88,1.58-2,3.45-3.25,5.62s-2.47,4.25-3.55,6.22-2,3.72-2.89,5.25a10.76,10.76,0,0,0-1.26,2.74v29.9h-11V511.09h10.8v52.1a12.26,12.26,0,0,1,1.48.59,2.93,2.93,0,0,0,1.34.3l28.26-53H792L767.68,558.6ZM777.59,507.39,754.06,554v-5.32Z" transform="translate(-2.81 -5.01)"/><path d="M981.83,627.57H961l-6.66-44.25-11.39,45.73H932l-12.44-45.73-6.66,44H891.4l16.88-119.15h2.51L893.92,623.28h17.61l8-51.5q1.49,5.33,3.19,11.76T926.26,597q1.85,7,3.77,14.21c1.28,4.78,2.57,9.4,3.85,13.83h7.7q3.4-13.17,7-26.49t6.73-26.78l8.14,51.8h16.43L964.22,508.13Zm-5.77-8h-9.77l-9-58.31h-2.81l-15.83,59.94h-1.93q-3.84-15.11-7.84-30t-8.29-30h-3.11a.4.4,0,0,1-.15.29,1,1,0,0,1-.29.23.79.79,0,0,0-.3.37q-1,7.1-2,13.76t-1.92,13.47q-1,6.81-1.92,14.2t-2.15,16H898.36l15.69-107.75h4.59l16.87,73.71h3.85l16.28-73.71h4.58ZM953,508.13l-15.54,67.34-14.8-66.89L937,569.11l13.91-61Z" transform="translate(-2.81 -5.01)"/><path d="M1068,626.83h-58.76V506.06h2.22V623.13h54.91V602H1068Zm-4.44-103h-37v30.49h25.9v13.32h-25.9v37.74h36.11v13.76h-47.06V509.76h47.95Zm4.88,7.7h-37.15v18.65l-.44-22.35H1068q-.15-7.55-.22-11.84t0-6.44a16.36,16.36,0,0,1,.22-2.74,1.82,1.82,0,0,1,.44-.88Zm-11.1,43.66h-26v26.64l-.44-30.34h26V550a8.63,8.63,0,0,1,.37,1,14.82,14.82,0,0,1,.29,3.18q.08,2.52,0,7.4T1057.31,575.18Z" transform="translate(-2.81 -5.01)"/><path d="M1171.42,533H1144v94.28h-21.46V533.15h-25.75V508h2.22V529.3h26v94.28h17.76v-94h26.93V508.43h1.63Zm-5.33-7.25h-26.64v93.68h-10.51V526H1103V511.69h63Z" transform="translate(-2.81 -5.01)"/><path d="M1281.53,627H1258.3q-.75-2.22-1.56-5.33c-.54-2.07-1.09-4.14-1.63-6.22s-1.11-4.06-1.7-6a22.48,22.48,0,0,0-1.92-4.66h-20a20.69,20.69,0,0,0-1.85,4.51q-.83,2.75-1.63,5.85c-.54,2.07-1,4.17-1.48,6.29s-.87,4-1.26,5.55h-23.68l33.75-119.29h1.92l-32.71,115.89H1224q1.62-5.4,3.11-11t2.66-11.47h24.72c.29,1.5.69,3.27,1.18,5.32s1,4.15,1.63,6.3,1.18,4.2,1.78,6.15,1.13,3.57,1.62,4.87h19.39L1246.9,507.54Zm-6.81-7.25H1263q-1-4.89-2.59-11a81.89,81.89,0,0,0-3.62-11.17h-29.46q-1.62,4.88-3.18,11.1t-2.44,11.1H1209.9l30.78-108.49h2.82ZM1254,586l-9.91-43.06h-3.41L1230.18,586Zm-4.73-3.7h-3l-5-19.53c-.8,3.16-1.58,6.49-2.37,10a65.87,65.87,0,0,1-2.67,9.1l-1.33.44,7.4-30Z" transform="translate(-2.81 -5.01)"/><path d="M1386.46,514.35l-31.52,113.22h-14.06l-32.12-120.91h2.52q8,28.84,15.76,57.57T1342.51,622a11.42,11.42,0,0,1,.59,1,3.18,3.18,0,0,0,.59.89h9.47a3.18,3.18,0,0,0,.59-.89,9.39,9.39,0,0,1,.6-1q8-29,16.13-57.72t16.57-57.72Zm-5.18-4.14-30.63,110h-4.44L1316.61,511l.59-.74H1328q4.74,18.8,9.55,37.22t10,37.07h2.37q2.22-7.54,4.73-16.65t5.18-18.79q2.67-9.69,5.33-19.61t5.18-19.24Zm-14.8-3.11L1349,575.47l-17-68.37,16.43,62.6,16.72-62.6Z" transform="translate(-2.81 -5.01)"/><path d="M1473.78,626.83H1415V506.06h2.22V623.13h54.9V602h1.63Zm-4.44-103h-37v30.49h25.9v13.32h-25.9v37.74h36.11v13.76h-47.06V509.76h47.95Zm4.88,7.7h-37.14v18.65l-.45-22.35h37.15q-.15-7.55-.22-11.84t0-6.44a17.59,17.59,0,0,1,.22-2.74,1.91,1.91,0,0,1,.44-.88Zm-11.1,43.66h-26v26.64l-.45-30.34h26V550a8.63,8.63,0,0,1,.37,1,14.57,14.57,0,0,1,.3,3.18q.08,2.52,0,7.4T1463.12,575.18Z" transform="translate(-2.81 -5.01)"/><path d="M1575,627.28h-24.57q-1.92-4-4.58-9.7t-5.55-11.91q-2.89-6.23-5.85-12.36T1529,582a1.22,1.22,0,0,0-1.11-1,3.7,3.7,0,0,1-1.55-.52c-.2.29-.3.42-.3.37V627h-22.64V508h2.37V623.58h18.65V577a41.27,41.27,0,0,1,4.36.14c.64.1,1.06,0,1.26-.29l22.79,46.91h19.24l.89-.89q-1.18-2.07-2.29-4.29a38.3,38.3,0,0,1-1.85-4.29q1.62,3.11,3.33,6.44A59.17,59.17,0,0,1,1575,627.28Zm-8.58-7.85h-12q-5-10.35-10.51-22.27t-11.1-23.31a25.68,25.68,0,0,0-5.4-.74q-3.18-.15-6.44-.6v46.92h-11.25V510.65a4.13,4.13,0,0,0,3.26,1,29.06,29.06,0,0,1,3.11-.45,37.8,37.8,0,0,1,4.81-.29,32.78,32.78,0,0,0,4.66-.3c1.18-.1,2.64-.15,4.37-.15h3.62a15.62,15.62,0,0,1,3.18.59c1.53.4,2.74.7,3.63.89a16.79,16.79,0,0,1,9.25,4,23.63,23.63,0,0,1,5.7,7.69,36,36,0,0,1,2.88,9.25,52.85,52.85,0,0,1,.82,8.66,43,43,0,0,1-.67,6.88,35.22,35.22,0,0,1-2.44,8.22,33.47,33.47,0,0,1-4.74,7.84,20.26,20.26,0,0,1-7.4,5.77Zm-18.35-77.55a18.78,18.78,0,0,0-1.56-8.14,13.34,13.34,0,0,0-4.36-5.25,18.5,18.5,0,0,0-6.52-2.89,33.57,33.57,0,0,0-7.84-.89c-.69,0-1.8.08-3.33.22a12,12,0,0,1-3.63-.07v35.67a1.1,1.1,0,0,1,.52-.23,10.27,10.27,0,0,1,1.63,0c.84.06,2.09.1,3.77.15s4,.08,6.81.08q8-.75,11.25-5.92A23.5,23.5,0,0,0,1548.08,541.88Zm-4.3.44c0,1,0,2.1-.07,3.33a12.92,12.92,0,0,1-.67,3.63,12.29,12.29,0,0,1-1.77,3.4,8.46,8.46,0,0,1-3.55,2.67,3.1,3.1,0,0,0,1.92-1.71,13.83,13.83,0,0,0,1.18-3.18,29.54,29.54,0,0,0,.67-3.55,24.11,24.11,0,0,0,.22-3,21.8,21.8,0,0,0-.44-3.25,13.51,13.51,0,0,0-1.32-4,4.64,4.64,0,0,0-1.17-1,20.44,20.44,0,0,0-2.27-1.4c-.84-.45-1.64-.84-2.42-1.19a5.2,5.2,0,0,0-1.61-.52h-6.6a2.3,2.3,0,0,0-.15,1c0,.44,0,1.43.07,3s.1,3.77.15,6.73.07,7.11.07,12.43l-.73.67a1.28,1.28,0,0,1-.89.37V529a4.45,4.45,0,0,0,1.55-.29,5.32,5.32,0,0,1,1.85-.3,34.51,34.51,0,0,1,6.66.59,12.29,12.29,0,0,1,5,2.15,9.83,9.83,0,0,1,3.18,4.29A18.45,18.45,0,0,1,1543.78,542.32Zm24.57,71.34-19.83-41.44a37.13,37.13,0,0,0,7.25-7.55,38.06,38.06,0,0,0,4.37-8,34.86,34.86,0,0,0,2.07-7.85,55.32,55.32,0,0,0,.52-7.25,60.82,60.82,0,0,0-1.11-11,30.31,30.31,0,0,0-3.48-10,20.17,20.17,0,0,1,2.66,5.1,47.76,47.76,0,0,1,1.71,6,56.48,56.48,0,0,1,1,6.07c.19,2,.29,3.75.29,5.32a64,64,0,0,1-.51,7.62,37.58,37.58,0,0,1-2.08,8.44,41,41,0,0,1-4.21,8.29,30.93,30.93,0,0,1-6.81,7.33Z" transform="translate(-2.81 -5.01)"/><path d="M1660.11,591.31a41.55,41.55,0,0,1-2.22,13.77,32.55,32.55,0,0,1-6.36,11,30.27,30.27,0,0,1-10.07,7.4,31.61,31.61,0,0,1-13.46,2.74,39.09,39.09,0,0,1-7.18-.67,32.87,32.87,0,0,1-7-2.07,29.54,29.54,0,0,1-6.14-3.48,19,19,0,0,1-4.59-4.73l7.7-25.31c.19.2.46.49.81.89a1.67,1.67,0,0,1,.52.88l-6.37,21q5.48,6.22,11,8a37.7,37.7,0,0,0,11.62,1.78,30.35,30.35,0,0,0,13.54-2.81,27.83,27.83,0,0,0,9.47-7.48,31.64,31.64,0,0,0,5.63-10.65,41.32,41.32,0,0,0,1.85-12.21c0-.89-.08-2.2-.22-3.93a55.31,55.31,0,0,0-.82-5.62c-.39-2-.89-4-1.48-6.07a21.43,21.43,0,0,0-2.37-5.4,41.06,41.06,0,0,1,4.74,11.47A50.11,50.11,0,0,1,1660.11,591.31Zm-19.53-.3a20,20,0,0,1-.67,4.74q-.67,2.67-4.66,4.44a2.57,2.57,0,0,0,1.85-1.33,8.66,8.66,0,0,0,.74-2.29,10.28,10.28,0,0,0,.15-2.37c-.06-.74-.08-1.26-.08-1.56a16.48,16.48,0,0,0-2.51-9.54,28.46,28.46,0,0,0-6.37-6.52q-3.85-2.88-8.21-5.69a43.53,43.53,0,0,1-8.22-7,33.68,33.68,0,0,1-6.36-10.36q-2.52-6.21-2.52-16a48.27,48.27,0,0,1,.74-8.14A37.62,37.62,0,0,1,1607,521a32.46,32.46,0,0,1,4.81-7.84,25.63,25.63,0,0,1,7.62-6.22,33.34,33.34,0,0,0-7.18,7.33,32.65,32.65,0,0,0-3.92,7.55,29.23,29.23,0,0,0-1.63,7.25c-.2,2.32-.29,4.51-.29,6.58q0,9.92,2.51,16a31.93,31.93,0,0,0,6.37,10.06,41,41,0,0,0,8.21,6.66q4.37,2.67,8.22,5.55a26.56,26.56,0,0,1,6.36,6.74Q1640.58,584.5,1640.58,591Zm14.2-1.92a41.58,41.58,0,0,1-1.62,11.84,27,27,0,0,1-4.89,9.47,22,22,0,0,1-8.21,6.22,28.24,28.24,0,0,1-11.62,2.22,30.45,30.45,0,0,1-8.58-1.35,32.66,32.66,0,0,1-9.77-5.08q.73-3.3,1.92-6.94c.79-2.43,1.58-4.84,2.37-7.2a15,15,0,0,0,3.4,2.73,28.29,28.29,0,0,0,4.3,2.15,32.43,32.43,0,0,0,4.36,1.41,16.24,16.24,0,0,0,3.63.52,17.4,17.4,0,0,0,6.88-1.19,11.27,11.27,0,0,0,4.37-3.17,11.81,11.81,0,0,0,2.29-4.59,22.31,22.31,0,0,0,.67-5.54q0-6.8-2.52-11a28.53,28.53,0,0,0-6.36-7.38,85.79,85.79,0,0,0-8.22-6,49.32,49.32,0,0,1-8.21-6.65,31,31,0,0,1-6.37-9.53q-2.52-5.68-2.51-14.56a43.84,43.84,0,0,1,1.11-9.45,27.14,27.14,0,0,1,3.84-9.17,22.57,22.57,0,0,1,7.26-6.87,21.23,21.23,0,0,1,11.17-2.73,30.21,30.21,0,0,1,4.07.44c1.92.3,3.9.69,5.92,1.19a22.07,22.07,0,0,1,5.33,2c1.53.84,2.29,1.76,2.29,2.74a9.23,9.23,0,0,1-.37,1.85c-.24.94-.54,2-.88,3.26s-.7,2.49-1,3.77-.67,2.37-1,3.26c-1.09-.5-2.35-1.16-3.78-2a33.22,33.22,0,0,0-3.92-2,7,7,0,0,0-1.63-.52l-2.14-.44a17.22,17.22,0,0,0-2.07-.3c-.65,0-1.12-.07-1.41-.07q-6.66,0-9.47,4.37a18.26,18.26,0,0,0-2.82,10.13,16.46,16.46,0,0,0,2.52,9.47,31.55,31.55,0,0,0,6.37,6.81q3.84,3.12,8.21,6.07a47.72,47.72,0,0,1,8.21,7.11,34.55,34.55,0,0,1,6.37,10Q1654.78,580.2,1654.78,589.09Zm2.08-75.48-6.52,24.72q-5.17-4.29-9.32-7.4a14.07,14.07,0,0,0-8.58-3.11,5.69,5.69,0,0,0-3.63,1.11,8.4,8.4,0,0,0-2.22,2.59,9,9,0,0,0-1,3,19.79,19.79,0,0,0-.22,2.45,10.41,10.41,0,0,0,.52,2.66c.34,1.18.61,2.17.81,3a40.64,40.64,0,0,1-1.55-4.15,13.83,13.83,0,0,1-.82-3.55,13.12,13.12,0,0,1,2.22-7.54,7.54,7.54,0,0,1,6.66-3.26,15.32,15.32,0,0,1,8.44,2.37,41.2,41.2,0,0,1,7.7,6.66h.15c.09,0,.24-.15.44-.45q1.33-5.18,2.89-10.36t2.73-10.36a4.18,4.18,0,0,0,.82.89C1656.68,513.17,1656.86,513.41,1656.86,513.61Z" transform="translate(-2.81 -5.01)"/><path d="M1746.69,626.83h-58.76V506.06h2.22V623.13h54.91V602h1.63Zm-4.44-103h-37v30.49h25.9v13.32h-25.9v37.74h36.11v13.76H1694.3V509.76h48Zm4.88,7.7H1710v18.65l-.45-22.35h37.15q-.15-7.55-.22-11.84t0-6.44a17.59,17.59,0,0,1,.22-2.74,1.91,1.91,0,0,1,.44-.88ZM1736,575.18h-26v26.64l-.45-30.34h26V550a8.63,8.63,0,0,1,.37,1,14.57,14.57,0,0,1,.3,3.18q.06,2.52,0,7.4T1736,575.18Z" transform="translate(-2.81 -5.01)"/></svg>