<svg id="图层_1" data-name="图层 1" xmlns="http://www.w3.org/2000/svg" viewBox="0 0 1016.88 363.48"><path d="M685.83,1c10.07,2.05,20.35,3.1,30.22,6.19,49.46,15.49,80.8,47.68,89.7,99.47,10.15,59.06-23.49,115.64-80.38,136.14-26,9.37-52.6,13.64-79.65,4.52-34.55-11.64-58.79-35.21-74.51-67.55-36.13-74.31,7.87-148.56,71-171.5,10.62-3.86,22.22-4,33.31-6.1,1.47-.28,3-.26,4.28-1.17Z" transform="translate(-1.5 -1)"/><path d="M1.5,9c14.81,0,29.62.11,44.43.11q121.56,0,243.12,0c1.94,0,3.94-.44,6.47.73q-73.65,125-147.23,249.93c-2.47-1.87-3.27-4.14-4.42-6.12Q94.21,168.75,44.57,83.79c-4.63-7.89-9.7-15.53-14.74-23.17C19.49,44.93,8.67,29.53,1.5,12Z" transform="translate(-1.5 -1)"/><path d="M307.32,126.56c0-37.32.07-74.63-.1-111.94,0-4.39,1.17-5.66,5.58-5.63,26.62.21,53.25-.22,79.87.23A296.35,296.35,0,0,1,456,16.66c45.57,10.79,72.48,39.71,82.9,84.81,15.86,68.6-31.34,134.73-101.72,142.67-11.95,1.34-23.93,1.1-35.9,1-29.78-.33-59.57-.91-89.35-1.07-4.84,0-5.67-1.74-5.66-6,.14-37.14.08-74.29.08-111.43Z" transform="translate(-1.5 -1)"/><path d="M921.07,243.9c-28.13,0-56.25-.08-84.38.07-4.3,0-6-.82-6-5.68q.74-111.94,1-223.89c0-4.08,1.07-5.39,5.28-5.37q53.18.24,106.34,0c4.33,0,5.2,1.49,5.19,5.46-.14,35-.08,70-.08,105,0,6.66,0,6.64,6.85,6.75,17.8.29,35.61.71,53.41.82,3.78,0,4.76,1.24,4.72,4.91q-.66,54.21-.94,108.44c0,4-1.63,4.59-5.06,4.58-28.79-.11-57.57-.06-86.36-.06Z" transform="translate(-1.5 -1)"/><path d="M512.8,322q-9.15,17.44-18.28,34.9c-2.77,5.29-3.78,5.44-8.07,1-3.79-3.89-6.06-8.73-8.19-13.63-2.45-5.65-4.7-11.39-7.17-17a28,28,0,0,0-6.16-9.23v28.1c0,3.83-.14,7.67,0,11.5.13,3.31-1.95,3.18-4.24,3.26-2.54.08-3.53-.85-3.52-3.47.06-23,0-46,0-69.26,4,.29,4.57,2.6,5.49,4.38Q475,316.29,487.29,340c2.49,4.8,2.86,4.84,6,.28,5.37-7.91,8.75-16.83,12.71-25.45,3.2-7,6.26-14,10.56-20.38,1.74-2.56,3.5-5.17,6.34-6.49,1.36,1,1,2.08,1,3,0,21.67,0,43.33.06,65,0,3-.12,5-4.11,5-3.81,0-4.85-1.28-4.79-4.91.18-11.27.07-22.54.07-33.82Z" transform="translate(-1.5 -1)"/><path d="M609.7,342.11c0-8.79,0-17.05,0-25.3,0-7.33.28-14.66.25-22,0-2.81,1-3.82,3.81-3.75,2.5.07,4,.39,4,3.51-.09,23.13,0,46.27,0,69.9-4.64-.59-6.22-3.25-8-5.45-11.75-14.48-23.42-29-35.16-43.51-1.21-1.49-2.09-3.37-4.12-4.2-1.12,1.56-.59,3.26-.6,4.83-.05,13.32-.09,26.65,0,40,0,3.14-.42,4.95-4.25,4.87-3.38-.07-4.67-1-4.66-4.51.11-20.48-1-41,1-61.41a20.6,20.6,0,0,1,.26-2.49c.32-1.42.17-3.41,1.66-3.91,1.71-.56,2.38,1.45,3.25,2.54q18.64,23.15,37.24,46.33C605.53,339,606.38,340.94,609.7,342.11Z" transform="translate(-1.5 -1)"/><path d="M1002.6,340.43c0-16.35,0-31.66,0-47,0-2.6.23-4.34,3.66-4.44,3.93-.11,4.21,1.85,4.15,4.91-.37,18.49-.63,37-.9,55.46a81.22,81.22,0,0,1-.81,13.17c-16.59-16.68-30-35.82-46-54.23-.12,2.72-.27,4.45-.27,6.18,0,13.49-.09,27,0,40.47,0,3.13-1.17,4-4.11,3.95-2.71-.08-4.79,0-4.77-3.81.09-20.64-1.07-41.3.93-61.91.08-.83.1-1.67.25-2.49.26-1.45.21-3.5,1.55-4,1.93-.69,2.64,1.55,3.61,2.75q18.49,22.93,36.92,45.94C998.07,336.93,999,338.79,1002.6,340.43Z" transform="translate(-1.5 -1)"/><path d="M226.3,324.52c0,20.17-16.15,35.37-37.48,35.34-20.46,0-36.56-16.9-36.63-38.28-.06-21.22,14.36-34.1,32.32-35.09C208.67,285.16,226.34,302.47,226.3,324.52Zm-9.93-1.36c1.7-17.93-20.79-39.7-40.07-25.37-3.27,2.43-7.65,3.06-10.16,6.87-8.26,12.56-5.17,33.33,6.53,42.76a22.45,22.45,0,0,0,10.27,4.78C200.29,355.24,216.2,341.44,216.37,323.16Z" transform="translate(-1.5 -1)"/><path d="M369,324.73c0-21.52,13.81-33.81,31.66-35.2,24.27-1.88,42.42,15.67,42.44,37.83,0,20.23-16,35.44-37.34,35.49C385.29,362.9,369.08,346.1,369,324.73Zm64.17,1c1.45-17.87-21.1-39.17-40-25-3.25,2.44-7.66,3.05-10.18,6.83-8.44,12.65-5.19,33.75,6.78,43.09a22.29,22.29,0,0,0,9.86,4.51C417.2,358.33,433.14,344.35,433.16,325.76Z" transform="translate(-1.5 -1)"/><path d="M777.59,322.37c.07-21.16,14.16-33.71,32-34.86,24.34-1.57,42.19,15.93,42.08,38.21-.09,20.11-16.37,35.28-37.68,35.13C793.55,360.71,777.54,343.78,777.59,322.37Zm64.17,1.39c1.45-17.86-21.1-39.17-40-25-3.25,2.44-7.66,3.05-10.19,6.83-8.43,12.65-5.18,33.75,6.79,43.09a22.29,22.29,0,0,0,9.86,4.51C825.8,356.33,841.74,342.35,841.76,323.76Z" transform="translate(-1.5 -1)"/><path d="M865.5,322.55c0-21.34,14-33.76,31.84-35,24.3-1.72,42.3,15.8,42.26,38,0,20.17-16.18,35.36-37.51,35.32C881.64,360.81,865.52,343.94,865.5,322.55ZM929.67,324c1.5-18.82-21.95-39.19-39.8-25.34-3.33,2.59-8,3.18-10.53,7.17-8.05,12.5-5.07,32.95,6.38,42.41a22.47,22.47,0,0,0,10.7,5C913.79,356.16,929.57,342.3,929.67,324Z" transform="translate(-1.5 -1)"/><path d="M687.85,300c-5.87,1-11.46-1.15-17.19-1.68-19.6-1.81-33.5,12.31-31.1,31.95C641,341.81,650.78,351,664.09,353A45.17,45.17,0,0,0,677,353c2.06-.28,3.61-.9,4.18-3.44,1.56-6.94,1.11-7.65-6.1-7.67-1.67,0-3.33-.09-5,0-2.4.13-3.2-1-3.16-3.3,0-2.13.44-3.5,3-3.47,5.81.09,11.64.08,17.46,0,2.28,0,3.34.81,3.3,3.19-.09,5-.1,10,0,15,0,2.27-1.18,3.26-3,4-13.51,5.5-26.91,5.89-39.84-1.52S629,333.94,632,318.41c4.42-23.06,31.31-37.18,51.64-27.29,4.16,2,6.49,4.25,4.13,9Z" transform="translate(-1.5 -1)"/><path d="M102.52,322.5c0-10.14.16-20.29-.08-30.43-.09-3.94,1-5.29,5.07-4.84,17.77,2,29.92,16.09,30,35.12.09,19.36-11.47,33.14-29.51,35.39-4,.49-5.72-.28-5.59-4.8C102.73,342.8,102.52,332.65,102.52,322.5Zm26.18.51c-.17-10.78-4.32-19.17-13.23-25.05-3-2-4.27-1.54-4.24,2.37q.18,22.19,0,44.38c0,4,1.27,4.29,4.27,2.37C124.37,341.39,128.44,333.15,128.7,323Z" transform="translate(-1.5 -1)"/><path d="M60.51,340.1c3.11-8.61,6.05-16.71,9-24.81s5.81-16.29,8.78-24.42a6.34,6.34,0,0,1,8.32-3.62c2.51,1.06,1,2.95.62,4.25a303.54,303.54,0,0,1-9.89,29.82c-4.67,12.46-9.35,24.93-15.56,36.74-.67,1.29-1.17,3.28-2.78,3.22s-1.73-2.23-2.19-3.54q-11.61-32.42-23-64.9c-.58-1.65-2.52-3.58-.47-5.33,1.31-1.14,8.1,1.16,8.76,2.83,1.15,2.94,2.14,6,3.17,8.93,4.08,11.8,8.12,23.6,12.24,35.38C58,336.33,58.2,338.26,60.51,340.1Z" transform="translate(-1.5 -1)"/><path d="M353.06,350.84c1.85,6.37,1.86,6.42-4.4,8-8.31,2.06-16.67,3-25.2,1.25-19.62-4-30.18-21.46-24.43-40.66C303,306,312.27,297,323.9,290c2.61-1.56,5.54-.92,8.32-.77a64.13,64.13,0,0,1,18.08,3.42c1.72.61,4.84.26,3.46,3.94-1.08,2.86-2.38,4.39-5.83,3.33-4.6-1.4-9.37-2.27-14-3.45a9.4,9.4,0,0,0-4.91-.13c-17.06,4.69-33.49,28.27-16.89,48.5,5.79,7.07,13,9.59,21.72,7.83A77.59,77.59,0,0,1,353.14,351Z" transform="translate(-1.5 -1)"/><path d="M745.56,359.09a15.37,15.37,0,0,1-9.78-2.81c-1.65-1.18-4-2.21-2.32-5.08,1.53-2.53,3.18-3.16,6.14-1.77,7.94,3.75,13.6.68,14.94-7.57.35-2.22-.41-3.77-1.63-5.48-3.3-4.59-6.59-9.21-9.53-14a61.31,61.31,0,0,1-5-10.33c-5.35-14.46.45-23.08,15.88-23.77,1.62-.07,3.93-1,4.25,1.95.25,2.37.41,4.65-2.8,5.41-5.91,1.41-9.5,5.14-10.73,11.17a7.43,7.43,0,0,0,1.63,6.94c3,3.39,5.77,6.89,8.58,10.4a34.53,34.53,0,0,1,7,14.17C765.38,352.31,755.22,358.35,745.56,359.09Z" transform="translate(-1.5 -1)"/><path d="M240.39,322.34c0-10.32.09-20.64-.06-30.95-.05-3.2.93-4.36,4.24-4.37s4.66.89,4.63,4.48c-.15,18.14.06,36.27-.15,54.41-.05,4.21,1.32,5.55,5.41,5.28,4.47-.31,9-.05,13.46-.08,2.28,0,4.24-.08,4.25,3.25,0,3-1.41,3.58-4,3.55-8-.09-15.95-.15-23.93,0-3.16.07-3.95-1.25-3.92-4.15C240.46,343.3,240.39,332.82,240.39,322.34Z" transform="translate(-1.5 -1)"/><path d="M545.84,326c0,10.14-.12,20.29.07,30.43.07,3.54-1.17,4.55-4.59,4.53-3.26,0-4.3-1.08-4.28-4.32q.16-31.18,0-62.36c0-3.3,1.12-4.24,4.32-4.28,3.47,0,4.61,1.08,4.55,4.57C545.72,305.06,545.84,315.54,545.84,326Z" transform="translate(-1.5 -1)"/><path d="M553.88,325.33c0,10.48,0,21,0,31.43,0,1.95.33,4.09-2.84,4.12s-2.95-1.92-2.95-4c0-21,.06-41.93-.05-62.9,0-3.12,1.19-3.9,4.11-4,3.42-.06,3.67,1.69,3.65,4.37-.09,10.3,0,20.62,0,30.93Z" transform="translate(-1.5 -1)"/><path d="M65.8,356.6q4.36-11.84,8.73-23.66Q82,312.62,89.6,292.31a20.73,20.73,0,0,1,1.8-4.08c1.12-1.71,3-1.27,4.54-.87,1.8.48.74,1.94.4,2.88-6.91,19-12.81,38.45-22,56.6C72.43,350.66,70.47,354.52,65.8,356.6Z" transform="translate(-1.5 -1)"/><path d="M251.38,316c0-8.32.1-16.64-.06-25,0-3.11,1.13-4,4.09-4s3.77,1.06,3.66,3.83c-.7,17.29-1.3,34.57-1.9,51.86-.07,1.92-.53,3.1-2.82,3.14-2.59.05-3-1.35-3-3.45C251.41,333.61,251.38,324.8,251.38,316Z" transform="translate(-1.5 -1)"/><path d="M758.93,358.13c5.26-3.87,6.31-9.36,7.31-14.92a17.21,17.21,0,0,0-3.94-14.87c-3.95-4.7-8.29-9.1-11.53-14.37-4.92-8-3.33-11.91,5.89-13.43,3.37-.56,4.64-1.8,4.24-5.09-.17-1.31,0-2.66,0-4-.1-2.2.58-3.4,3.09-3.34s2.68,1.41,2.66,3.26a31.81,31.81,0,0,0,0,5c.54,3.7-1.39,4.9-4.63,5.5-6,1.12-6.62,2.33-5.57,8.49s5,10.83,8.62,15.53c7.49,9.66,7.15,19.49,1.46,29.78C764.9,358.66,762.88,359.58,758.93,358.13Z" transform="translate(-1.5 -1)"/><path d="M334.43,351c-9.36-1.14-17.21-5.24-22.6-13.23-4.85-7.19-4.13-14.8-.23-22.22,3.18-6,8-10.48,13.66-14.23,1.94-1.29,4.05-1.32,6.21-1.33s5,0,5.32,2.5-2.68,1.64-4.15,2.08c-12.67,3.72-20.17,16.48-16.72,28.68,1.58,5.57,4.69,9.82,10.07,12.27,3,1.35,5.93,2.8,8.9,4.2C334.73,350.18,334.58,350.6,334.43,351Z" transform="translate(-1.5 -1)"/><path d="M669.19,350.64c-9.88-1.06-18.11-5.13-23.28-13.88-4.64-7.87-3-15.68,1.52-23.1a44.48,44.48,0,0,1,7.49-8.62c4.16-4,8.77-5.8,14.46-4.08,1.13.34,3.06-.39,3,1.67-.06,1.62-1.73,1.22-2.77,1.43a24.34,24.34,0,0,0-16.12,10.75c-6.89,10.46-4.3,26.81,9.14,31.71C665,347.39,667.64,348.13,669.19,350.64Z" transform="translate(-1.5 -1)"/><path d="M123.27,287.75c2.91-.82,4.68-.92,6.1.68,11.31,12.78,19.19,26.85,15.87,44.74-1.89,10.2-8.11,17.67-16.38,23.55-1.86,1.32-1.94,1.21-6.09.8C147,334.84,149.42,311.69,123.27,287.75Z" transform="translate(-1.5 -1)"/><path d="M625.76,326.41c0,10.16,0,20.32,0,30.48,0,1.71.54,4-2.42,3.9s-2.27-2.37-2.28-4q-.06-30.74,0-61.47c0-1.59-.85-4.14,2.21-4,2.51.14,2.51,2.19,2.51,4.1Q625.74,310.91,625.76,326.41Z" transform="translate(-1.5 -1)"/><path d="M1013.63,324.05c0-10.33,0-20.66,0-31,0-1.46-.75-3.73,1.94-3.75,2.49,0,2.77,1.83,2.77,3.83q0,31.23,0,62.47c0,1.48.12,3.08-2.15,3.19-2.5.11-2.57-1.51-2.57-3.28Q1013.64,339.8,1013.63,324.05Z" transform="translate(-1.5 -1)"/><path d="M924.75,288.94c2.45-1.13,4.25-1.22,5.58.36,10.63,12.67,19.26,26.22,16,43.85-2.07,11.34-9.47,19.19-18.48,25.71-1.4,1-3.13,1.2-4-.23-1-1.65,1.05-2.09,2.07-2.69,18.24-10.68,22.23-45.12,6.29-58.88C929.59,294.73,927.39,291.81,924.75,288.94Z" transform="translate(-1.5 -1)"/><path d="M428.05,290.84c3.24-1.17,5.05-.61,6.64,1.32,7.94,9.66,14.3,20,15.8,32.8,1.52,13-7.68,30.3-19.28,36.05-1.37.68-2.82.92-3.64-.17-1.26-1.69.67-2.21,1.68-2.76,14.68-8.08,21.64-33.9,12.21-51.75a29.35,29.35,0,0,0-4.19-5.54C434.43,297.57,431.45,294.49,428.05,290.84Z" transform="translate(-1.5 -1)"/><path d="M211.46,288c2.44-1.15,4.24-1.23,5.56.34,10.64,12.67,19.27,26.22,16.06,43.86-2.06,11.33-9.46,19.18-18.47,25.7-1.4,1-3.13,1.21-4-.21-1-1.66,1-2.1,2.05-2.69,18.26-10.69,22.23-45.14,6.31-58.88C216.29,293.73,214.09,290.82,211.46,288Z" transform="translate(-1.5 -1)"/><path d="M836.69,288.73c3.15-.93,4.9-.6,6.39,1.2,7.61,9.22,14,19.05,15.71,31.24,2,14.4-6.08,30.69-18.7,37.66-1.5.83-3.12,1.26-4-.13C835,357,837,356.57,838,356c18.29-10.6,22.29-45.1,6.42-58.85C841.73,294.78,839.53,291.84,836.69,288.73Z" transform="translate(-1.5 -1)"/><path d="M526.11,327.36c0-9.48,0-19,0-28.45,0-1.53-.51-3.54,2.12-3.7,2.93-.17,2.59,1.94,2.59,3.72q0,29,0,57.92c0,1.69.59,4-2.36,3.94s-2.33-2.29-2.34-4C526.08,347,526.11,337.18,526.11,327.36Z" transform="translate(-1.5 -1)"/><path d="M61.57,322.73c-.59,2,1,5.18-1.51,5.68-2.72.54-2.62-2.93-3.3-4.76-3.92-10.61-7.69-21.28-11.39-32-.48-1.39-2.56-3.84.41-4.3,2.4-.37,6.6-2.07,7.42,1.51C55.82,300.21,60.71,311,61.57,322.73Z" transform="translate(-1.5 -1)"/><path d="M964.68,338.46c0-5.83,0-11.66,0-17.49,0-1-.37-2.19.6-2.75,1.21-.7,2.26.24,3.09,1,3.15,2.9,5.39,6,4.57,10.85-1.41,8.36-2.16,16.83-3.2,25.26-.23,1.84-.33,3.8-3.09,3.46-2.59-.32-1.93-2.34-1.95-3.84C964.63,349.45,964.68,344,964.68,338.46Z" transform="translate(-1.5 -1)"/><path d="M572.06,340c0-5.83,0-11.66,0-17.49,0-3,1.36-3.19,3.27-1.6,3.27,2.72,5.82,5.71,5.07,10.62-1.3,8.55-2.18,17.17-3.25,25.76-.23,1.81-.28,3.81-3,3.5-2.61-.28-2-2.29-2-3.8C572,351.33,572.06,345.66,572.06,340Z" transform="translate(-1.5 -1)"/><path d="M467.21,295.61c3.79-1.37,6-.21,7.79,3.56,5.32,11.46,11,22.76,16.53,34.13.78,1.62,2.11,3.65-.12,4.8-1.85.94-3.4-.48-4.32-2.3q-9.93-19.57-19.87-39.15C467.09,296.39,467.21,296,467.21,295.61Z" transform="translate(-1.5 -1)"/><path d="M964.62,290.11c3.29-.18,4.2,1.63,5.35,2.95q13.54,15.58,27,31.24c1.16,1.35,2.75,2.57,1.89,4.76-.37.92-.58,2.14-1.69,2.23-.61,0-1.46-.66-1.92-1.25C985.16,316.93,975.09,303.78,964.62,290.11Z" transform="translate(-1.5 -1)"/><path d="M572,292c3.53,0,4.47,2,5.72,3.41q13.25,15.19,26.36,30.49a10.58,10.58,0,0,1,2.37,3.69,3.34,3.34,0,0,1-1.42,3.51c-1.14.75-1.74-.4-2.37-1.1s-1-1.3-1.53-2Z" transform="translate(-1.5 -1)"/><path d="M689.45,360.45c5.88-7.06,5.31-14.95,5.07-22.76-.06-2-.3-4-.43-6-.11-1.56.43-2.56,2.22-2.53,1.34,0,2.29.48,2.35,1.94.29,8.29,1.66,16.63-.69,24.81C696.77,360.1,694.87,361,689.45,360.45Z" transform="translate(-1.5 -1)"/><path d="M495.69,361c4.87-10.06,9.25-19.13,13.66-28.17.44-.91,1.12-1.71,2.32-1.45s1.13,1.16,1,1.95c-1.93,10.49-5.28,20.24-14.29,27A12.4,12.4,0,0,1,495.69,361Z" transform="translate(-1.5 -1)"/><path d="M470.27,332.2c2.74,3.3,2.63,7.49,3.17,11.45.66,4.81-.44,9.58-.47,14.37,0,1.69-.51,2.86-2.56,2.79-2.24-.07-2.16-1.6-2.16-3.12q0-12.63,0-25.26Z" transform="translate(-1.5 -1)"/><path d="M274.35,351.55c0-.83,0-1.66,0-2.49.12-1.71-.48-3.92,2.45-3.85s2.16,2.36,2.27,4a43.37,43.37,0,0,1,0,5c-.07,1.56.43,3.51-2.18,3.61-2.93.11-2.44-2-2.54-3.77C274.32,353.2,274.35,352.37,274.35,351.55Z" transform="translate(-1.5 -1)"/><path d="M353.14,351c.31-1.78-2.77-3.72-.06-5.23s3.69,1.29,5,2.71a9.78,9.78,0,0,1,2.95,6.11c.07,1.08.42,2.44-.95,3s-2.13-.34-2.86-1.31c-1.36-1.84-2.2-4.07-4.2-5.41Z" transform="translate(-1.5 -1)"/><path d="M687.75,300.1c.3-.14.6-.25.89-.41,1.8-1,1.65-4.92,5.1-3.47.81.34,1.55,1,1.06,1.93-1.45,2.72-2,6.26-5.23,7.5-1.93.75-3.78,0-2.7-2.88.35-.92.65-1.85,1-2.78Z" transform="translate(-1.5 -1)"/><path d="M360.41,298.67c-1.93,2.38-2.18,6.27-6,7.11-1.45.31-3.14-.51-2.47-2,1.27-2.88,2.19-6.38,5.73-7.47C359.09,295.85,360.05,297,360.41,298.67Z" transform="translate(-1.5 -1)"/><path d="M190.92,347.51c-17,1-29.74-16.08-24.81-31.5,2.46-7.67,7.61-13.17,14.14-17.54,3.82-2.57,7.75-.28,11.63-.2.71,0,1.09.65,1,1.44s-.79,1-1.42,1.13c-1.46.34-3,.54-4.38,1A24.06,24.06,0,0,0,171,330.66c1.32,4.91,3.74,8.74,8.66,10.87C183.16,343,186.41,345.08,190.92,347.51Z" transform="translate(-1.5 -1)"/><path d="M407.73,350.52c-17.1.87-29.78-16.12-24.82-31.55,2.46-7.65,7.62-13.16,14.15-17.52,3.83-2.55,7.76-.25,11.64-.16.33,0,.81.58.93,1a1.11,1.11,0,0,1-.93,1.46c-1.3.3-2.62.48-3.9.82-12.64,3.38-20.37,16.69-17,29.15,1.33,4.91,3.77,8.73,8.68,10.85C400,346.05,403.21,348.09,407.73,350.52Z" transform="translate(-1.5 -1)"/><path d="M815.29,348c-16.35.92-28.61-15.48-23.87-30.72,2.44-7.86,7.68-13.54,14.44-17.89,3.8-2.44,7.76-.18,11.64,0,.29,0,.73.7.77,1.1.07.74-.45,1.17-1.18,1.32-1.31.26-2.63.46-3.91.81-11.42,3.14-19.12,14.69-17.35,26.38.9,6,3.26,11.09,9.44,13.68C808.75,344.11,812,346.17,815.29,348Z" transform="translate(-1.5 -1)"/><path d="M903.12,347.94c-.74,1.46-1.92,1-2.67.85-15.93-3.57-27.38-17.66-19.92-34.69,2.69-6.14,7.26-10.64,12.68-14.43,4-2.81,8-.47,12.07-.36.31,0,.79.61.88,1a1.14,1.14,0,0,1-1,1.42c-1.3.28-2.62.47-3.9.82-12.42,3.34-20.16,16.43-17,28.69,1.29,5.08,3.7,9.11,8.82,11.31C896.5,344.05,899.73,346.11,903.12,347.94Z" transform="translate(-1.5 -1)"/><path d="M113.51,323c0-5.48-.08-11,0-16.44,0-1.34-1.07-3.85,1.83-3.59,2,.17,4.77.16,4.8,3.18.12,10.93,1,21.92-1.64,32.7-.42,1.7-.58,4-3.08,3.83-3-.17-1.86-2.69-1.91-4.25C113.42,333.3,113.51,328.15,113.51,323Z" transform="translate(-1.5 -1)"/></svg>